<?xml version="1.0" encoding="UTF-8" standalone="no"?>
<!-- Created with Inkscape (http://www.inkscape.org/) -->

<svg
   width="136.06769mm"
   height="102.65104mm"
   viewBox="0 0 136.06769 102.65104"
   version="1.1"
   id="svg5"
   inkscape:version="1.1.2 (0a00cf5339, 2022-02-04)"
   sodipodi:docname="labels.svg"
   xmlns:inkscape="http://www.inkscape.org/namespaces/inkscape"
   xmlns:sodipodi="http://sodipodi.sourceforge.net/DTD/sodipodi-0.dtd"
   xmlns="http://www.w3.org/2000/svg"
   xmlns:svg="http://www.w3.org/2000/svg">
  <sodipodi:namedview
     id="namedview7"
     pagecolor="#ffffff"
     bordercolor="#666666"
     borderopacity="1.0"
     inkscape:pageshadow="2"
     inkscape:pageopacity="0.0"
     inkscape:pagecheckerboard="0"
     inkscape:document-units="mm"
     showgrid="false"
     fit-margin-top="0"
     fit-margin-left="0"
     fit-margin-right="0"
     fit-margin-bottom="0"
     inkscape:zoom="0.6180385"
     inkscape:cx="42.068577"
     inkscape:cy="-33.978466"
     inkscape:window-width="1920"
     inkscape:window-height="1136"
     inkscape:window-x="0"
     inkscape:window-y="0"
     inkscape:window-maximized="1"
     inkscape:current-layer="layer1" />
  <defs
     id="defs2" />
  <g
     inkscape:label="Ebene 1"
     inkscape:groupmode="layer"
     id="layer1"
     transform="translate(-53.235873,-48.565435)">
    <path
       style="fill:#0a0b99;stroke:none;stroke-width:0.0725714"
       d="m 130.77586,48.614778 c -0.71991,0.163285 -1.397,0.395006 -1.93693,0.927825 -0.38536,0.379912 -0.61541,0.866648 -0.83095,1.351353 -0.48985,1.100618 -0.81425,2.272647 -0.82296,3.483428 -0.009,1.23698 0.84473,2.414669 2.06684,2.687901 0.46881,0.104865 1.12631,0.06067 1.59657,-0.03005 1.93766,-0.373888 2.77295,-2.697407 2.98414,-4.39957 0.0646,-0.519466 0.21626,-0.990963 0.0936,-1.524 -0.0965,-0.416995 -0.18651,-0.865051 -0.4122,-1.233642 -0.53123,-0.869768 -1.70688,-1.497221 -2.73812,-1.26325 m 3.26571,0.102035 c 0.29392,1.015782 0.89626,1.903476 1.38539,2.830358 0.21336,0.403933 0.6125,0.910191 0.63065,1.378785 0.008,0.222649 -0.0893,0.434267 -0.11612,0.653143 -0.0943,0.788125 -0.25763,1.603828 -0.30044,2.394857 -0.0116,0.208788 -0.1945,0.797342 -0.0283,0.941396 0.29319,0.255089 1.04793,0.0701 1.15534,-0.289632 0.36358,-1.220216 0.0501,-2.681297 0.61903,-3.844907 0.16982,-0.347472 0.43906,-0.631734 0.66186,-0.943429 0.44413,-0.621864 0.85852,-1.257735 1.29249,-1.886857 0.28231,-0.410682 0.66693,-0.795092 0.72354,-1.306286 l -1.01455,0.04376 -0.4855,0.516055 -0.68798,0.903878 -0.65532,0.858955 -0.34907,0.298196 -0.32729,-0.233172 -0.54502,-0.936244 -0.52977,-0.869769 -0.30915,-0.447838 -1.11978,-0.06125 m -11.10343,0.03113 c -0.6604,0.09964 -0.65169,0.636669 -0.70829,1.202581 -0.0784,0.790811 -0.21264,1.612174 -0.35488,2.394857 -0.20175,1.107803 -0.26488,2.237087 -0.48478,3.338286 -0.0566,0.282448 -0.26053,1.032619 -0.0711,1.268984 0.17926,0.22352 0.56824,0.182009 0.82079,0.182444 0.77724,0.0012 1.5523,0.01807 2.32228,-0.10443 1.43401,-0.228092 2.44856,-1.854853 2.00007,-3.254611 -0.10087,-0.313726 -0.28883,-0.595303 -0.49494,-0.849013 -0.10813,-0.132805 -0.29173,-0.280125 -0.32366,-0.457272 -0.0726,-0.40074 0.43325,-0.855109 0.44123,-1.285531 0.008,-0.395877 -0.0298,-0.935663 -0.17054,-1.306285 -0.45648,-1.194744 -1.87888,-1.295618 -2.97616,-1.13001 m -28.012571,0.07221 c -1.681915,0.22098 -3.478058,0.776078 -4.294777,2.436658 -1.063098,2.161612 -0.717804,5.258163 1.89992,6.040192 0.401175,0.119888 0.838345,0.141805 1.25447,0.107696 0.488115,-0.04006 0.975795,-0.131136 1.430673,-0.319241 1.057583,-0.437461 1.047133,-1.661378 1.091402,-2.635504 0.01183,-0.259298 0.237526,-0.748212 -0.027,-0.930439 -0.206393,-0.14224 -0.549148,-0.07272 -0.786456,-0.07976 -0.669472,-0.01974 -1.599257,-0.197829 -1.580969,0.722522 0.01481,0.745381 0.945824,0.263652 1.055769,0.80097 0.110309,0.539641 -0.275336,1.022241 -0.768749,1.153451 -0.631081,0.167785 -1.418046,0.03222 -1.959428,-0.33782 -0.513516,-0.350883 -0.712507,-0.748502 -0.864689,-1.328928 -0.496534,-1.894187 0.735874,-3.752306 2.606403,-4.248695 0.599803,-0.159149 1.237633,-0.211328 1.856087,-0.191806 0.284842,0.0089 0.603721,0.20857 0.870131,0.01422 0.262854,-0.191734 0.281142,-0.955112 -0.03113,-1.107875 -0.172067,-0.08418 -0.405529,-0.04695 -0.590586,-0.06031 -0.396168,-0.02852 -0.762,-0.08774 -1.161071,-0.03534 m 18.360571,8.314943 c 0.84706,0.157263 1.68954,0.07671 2.54,0.07264 0.76737,-0.0037 1.55876,0.07134 2.322,-0.0041 0.41133,-0.04057 0.80133,-0.771797 0.46344,-1.112374 -0.15995,-0.161182 -0.54414,-0.102689 -0.75344,-0.111906 -0.72861,-0.03208 -1.44997,0.09267 -2.17714,0.07294 -0.35538,-0.0096 -0.88319,0.03585 -0.92616,-0.442323 -0.0398,-0.442831 0.0687,-1.087628 0.16285,-1.522766 0.0342,-0.157916 0.091,-0.320403 0.23499,-0.409521 0.31416,-0.194564 0.6948,-0.125984 1.03632,-0.11742 0.26518,0.0066 0.53137,-0.05196 0.79829,-0.0537 0.30008,-0.002 0.65002,0.03193 0.78645,-0.298269 0.1016,-0.245799 0.0226,-0.534053 0.0118,-0.790375 -0.69799,-0.129613 -1.41071,0.02605 -2.10428,-0.08331 -0.20472,-0.03229 -0.38187,-0.14478 -0.44181,-0.353496 -0.0544,-0.189048 0.0305,-0.392321 0.0569,-0.579192 0.0562,-0.398925 -0.0313,-1.022822 0.29232,-1.334807 0.16764,-0.161689 0.46228,-0.08396 0.67288,-0.108929 0.65873,-0.07802 1.38379,0.08614 2.02409,-0.103052 0.28542,-0.08433 0.49806,-0.703289 0.29588,-0.946549 -0.15299,-0.184186 -0.71904,-0.03868 -0.94111,-0.05312 -0.79713,-0.05167 -1.59411,0.0062 -2.39486,0.0065 -0.28724,1.45e-4 -0.68268,-0.05218 -0.85787,0.23426 -0.13752,0.224972 -0.0687,0.532239 -0.10914,0.78174 -0.11024,0.679704 -0.20473,1.345837 -0.27933,2.032 -0.15501,1.426681 -0.40342,2.853363 -0.5813,4.281714 -0.0402,0.322943 -0.12903,0.613736 -0.13179,0.943428 m -16.546285,0.07257 c 0.187887,0.07003 0.378533,0.154069 0.580571,0.171414 1.179504,0.101019 1.006566,-1.597588 1.697446,-2.138172 0.280126,-0.219166 0.588046,-0.179179 0.915126,-0.170761 0.460172,0.01176 0.917662,-0.0026 1.378852,0.03295 l -0.0726,0.290286 0.61098,1.760728 0.9856,0.198701 c 0.17039,-0.707717 -0.0768,-1.401572 -0.1942,-2.104572 -0.25408,-1.521677 -0.52179,-3.06832 -0.87906,-4.572 -0.16278,-0.685074 -0.0453,-1.993754 -1.1028,-1.797739 -0.668308,0.123879 -0.939797,1.400193 -1.173042,1.942882 -0.655538,1.525016 -1.35353,3.035591 -1.981418,4.572 -0.246567,0.603286 -0.627785,1.171738 -0.765453,1.814286 m 6.821713,0 c 0.2749,0.05443 0.74574,0.128306 1.00076,-0.01408 0.41453,-0.23143 0.53093,-0.952355 0.66838,-1.364778 0.26504,-0.795165 0.53195,-1.590476 0.76752,-2.394857 0.1487,-0.507855 0.25756,-1.105844 0.68391,-1.451429 l 0.9684,3.773714 0.5556,1.378857 c 0.68145,-1.132041 1.28532,-2.299208 1.86915,-3.483428 0.23013,-0.466779 0.49276,-1.194526 0.96114,-1.451429 0.0276,0.731593 0.10066,1.462823 0.19304,2.18948 0.0581,0.457273 0.009,0.910699 0.0493,1.366811 0.0295,0.338545 -0.0668,0.999236 0.12257,1.282917 0.15966,0.239341 0.89212,0.275699 1.03269,0 0.21438,-0.420479 0.0538,-1.252655 0.0538,-1.718636 0,-0.756267 -0.10842,-1.496786 -0.14231,-2.249714 -0.0391,-0.868318 -0.0226,-1.746432 -0.0819,-2.612572 -0.0452,-0.660182 0.0705,-1.665369 -0.86309,-1.55927 -0.48202,0.05479 -0.66736,0.764758 -0.87318,1.123842 -0.47628,0.831015 -0.88232,1.698244 -1.33865,2.54 -0.20748,0.382669 -0.36532,0.880944 -0.7649,1.088571 -0.25175,-1.222393 -0.60416,-2.506907 -0.9684,-3.701143 -0.14637,-0.479987 -0.17105,-1.024926 -0.77332,-1.074783 -0.90474,-0.07489 -0.93907,1.255341 -1.15112,1.873069 -0.494,1.438946 -0.91179,2.894366 -1.33779,4.354285 -0.20487,0.702056 -0.52433,1.375011 -0.63166,2.104572 m 27.48353,-7.516078 c 0.97753,-0.117783 1.74897,0.79698 1.82735,1.710364 0.0385,0.44733 -0.0762,0.945388 -0.17345,1.378857 -0.27505,1.225586 -0.82877,2.925644 -2.286,3.115636 -0.89771,0.117058 -1.75478,-0.198265 -1.98846,-1.156208 -0.0791,-0.323886 -0.0479,-0.684784 -0.0435,-1.016 0.0218,-1.606513 0.86578,-3.815878 2.6641,-4.032649 m -7.14248,0.144635 c 0.60815,-0.11713 1.14808,0.465546 1.10381,1.057729 -0.0348,0.467868 -0.45285,0.955403 -0.90714,1.059978 -0.23804,0.05472 -0.63791,0.07635 -0.82732,-0.108857 -0.19014,-0.186581 -0.11611,-0.571573 -0.0856,-0.805978 0.0798,-0.604593 10e-4,-1.065276 0.71628,-1.202872 m -23.31648,1.856014 c 0.24762,0.380202 0.27621,0.798431 0.36286,1.233715 0.0419,0.210457 0.11016,0.436589 0.0202,0.645087 -0.11706,0.271127 -1.019919,0.354366 -1.201493,0.116913 -0.121847,-0.159367 0.02264,-0.388765 0.07664,-0.544286 0.190933,-0.550019 0.373163,-1.01121 0.741823,-1.451429 m -18.357376,0.192605 c -0.720997,0.238615 -0.08259,1.096554 -0.42643,1.519501 -0.186871,0.229906 -0.76004,0.0233 -1.028192,0.04826 -0.617002,0.0574 -1.193582,0.452482 -1.482779,0.997349 -0.546463,1.02957 0.151166,2.399646 1.265065,2.646752 0.484995,0.107551 0.966651,-0.128234 1.451428,-0.127508 0.385427,5.08e-4 0.862004,0.109656 1.229433,-0.04412 0.468811,-0.196161 0.294713,-1.049165 0.294567,-1.459121 -2.9e-4,-0.797778 -0.07003,-1.594032 -0.07264,-2.394857 -9.43e-4,-0.306615 0.05929,-0.799302 -0.140788,-1.057076 -0.192677,-0.248122 -0.819767,-0.218585 -1.08966,-0.129177 M 56.898187,55.24824 c -0.294568,-0.268151 -0.442541,-0.607423 -0.645523,-0.943428 -0.286657,-0.474617 -0.603939,-0.924125 -0.900321,-1.391194 -0.138321,-0.218005 -0.232809,-0.50517 -0.441089,-0.669617 -0.298632,-0.235785 -1.498883,-0.257629 -1.618568,0.178235 -0.112595,0.409956 -0.02307,0.950831 -0.02307,1.374576 0,1.09474 0.05303,2.172571 0.07257,3.265714 l 1.27479,-0.002 0.176638,-0.796254 v -2.322285 l 0.842047,1.016 1.335096,2.177142 1.407668,-0.08556 0.118872,-0.422729 0.01916,-1.01571 -0.09427,-3.483428 -1.335314,0.0746 -0.139773,0.868826 -0.04891,2.177142 m 2.467428,-2.249714 c 0.382669,0.07105 1.190099,0.244421 1.438439,-0.161689 0.122718,-0.20066 0.08542,-0.484342 0.08556,-0.709168 -0.31525,-0.05849 -1.218111,-0.248194 -1.449396,0.04376 -0.150586,0.190137 -0.0746,0.598859 -0.0746,0.827096 m 7.547429,0.217714 h -0.725715 c 0.08106,0.52324 0.588264,0.445662 0.754526,0.872527 0.31583,0.81113 -0.288182,1.973797 0.189846,2.745304 0.196379,0.316847 1.15483,0.366921 1.376172,0.05182 0.156102,-0.222141 0.0873,-0.586087 0.08919,-0.839361 0.0041,-0.558002 -0.211111,-1.523347 0.07068,-2.022638 0.141152,-0.250154 0.465691,-0.396313 0.712724,-0.517362 -0.09637,-0.239631 -0.186218,-0.275989 -0.435428,-0.217714 l -0.362857,-0.145143 c -0.0143,-0.173155 -0.01575,-0.399288 -0.140644,-0.536738 -0.204143,-0.224609 -1.11223,-0.171922 -1.329799,0.02424 -0.149715,0.135055 -0.16256,0.399433 -0.1987,0.58507 m 56.750865,-0.0389 c 1.32297,-0.08542 2.39195,1.520952 1.15896,2.452043 -0.27795,0.210167 -0.67056,0.312711 -1.01382,0.338038 -0.28521,0.02097 -0.88827,0.107188 -1.10599,-0.119888 -0.17344,-0.180195 -0.0624,-0.52324 -0.0559,-0.744438 0.0116,-0.403932 0.11394,-0.766209 0.18796,-1.161142 0.0385,-0.205595 0.0573,-0.449435 0.2228,-0.599295 0.15312,-0.138394 0.41002,-0.152618 0.60597,-0.165318 m -37.520453,0.164012 c -0.368953,0.003 -0.681809,0.07322 -1.015057,0.226858 -0.283173,0.130556 -0.506766,0.290939 -0.72165,0.519248 -1.247358,1.324937 0.145143,3.214697 1.737723,3.191401 0.539278,-0.0078 1.454041,-0.29493 1.842588,-0.686162 0.714974,-0.719764 0.701185,-1.852386 0.02242,-2.570553 -0.216626,-0.229253 -0.492905,-0.3556 -0.776442,-0.481947 -0.343698,-0.153198 -0.71345,-0.201893 -1.089587,-0.198845 m -12.553841,2.052029 c 0.223012,-0.756267 -0.306106,-1.449033 -1.016073,-1.690116 -0.922237,-0.313291 -2.137809,-0.398707 -2.878908,0.393265 -0.61693,0.659239 -0.642838,1.928295 0.06415,2.54791 0.649659,0.569395 1.561447,0.732246 2.379399,0.528755 0.548132,-0.136434 1.249535,-0.413076 1.364779,-1.050108 0.08513,-0.470771 -0.798286,-0.387314 -1.070284,-0.321129 -0.395079,0.09601 -0.350157,0.629485 -0.681228,0.822815 -0.447112,0.26104 -0.992995,-0.449798 -0.858883,-0.864543 0.07765,-0.240284 0.358576,-0.373308 0.592474,-0.405384 0.283318,-0.03875 0.587248,0.05965 0.870857,0.07743 0.407125,0.02562 0.827822,-0.01226 1.233714,-0.0389 m 0.725714,1.669143 c 0.344715,-0.03853 0.915126,0.08774 1.210637,-0.128379 0.218657,-0.159947 0.168148,-0.506911 0.16822,-0.742478 2.18e-4,-0.514532 -0.152472,-1.396492 0.306832,-1.763195 0.459885,-0.367284 0.970571,0.02997 1.055697,0.529481 0.07613,0.446459 -0.0015,0.927317 0.01916,1.378857 0.0087,0.189048 0.01945,0.441815 0.183243,0.568669 0.183678,0.14224 0.469101,0.119308 0.684784,0.102254 0.13716,-0.01081 0.293116,-0.0063 0.424978,-0.0492 0.321709,-0.104575 0.259878,-0.496896 0.27432,-0.765774 0.04035,-0.751767 0.126855,-1.63605 -0.446605,-2.216041 -0.443193,-0.448273 -1.107657,-0.568887 -1.704122,-0.442976 -0.276279,0.05835 -0.507202,0.200951 -0.798286,0.164157 -0.383249,-0.0484 -1.15599,-0.311041 -1.449396,0.07736 -0.143982,0.190573 -0.08244,0.59211 -0.09333,0.819839 -0.03788,0.7874 -0.09188,1.712033 0.163866,2.467429 M 61.9056,53.65167 c -0.371275,0.70895 -0.154287,1.554625 -0.145433,2.322286 0.0031,0.267861 -0.07772,0.685437 0.07489,0.921439 0.194274,0.300518 0.930511,0.272143 1.215136,0.128742 0.27178,-0.136797 0.28477,-0.496752 0.2622,-0.759896 -0.04049,-0.472149 -0.08803,-1.071227 0.09819,-1.521097 0.263216,-0.635653 0.892628,-0.474399 1.175874,0.02794 0.373961,0.66323 0.07605,1.572333 0.294568,2.291443 0.368009,-0.02366 0.977101,0.19021 1.262525,-0.113502 0.219891,-0.234043 0.192677,-0.824774 0.158351,-1.120212 -0.08999,-0.774555 -0.04507,-1.499544 -0.774265,-2.003842 -0.734132,-0.507783 -1.261001,-0.150949 -2.025468,-0.0791 -0.503864,0.04732 -1.088644,-0.0455 -1.596572,-0.0942 m -1.016,0.07257 c -0.347835,0 -1.135743,-0.189048 -1.407595,0.05929 -0.204724,0.187089 -0.0545,0.575709 -0.04695,0.811566 0.01771,0.556551 -0.02417,1.108094 2.91e-4,1.669143 0.0096,0.220037 -0.06241,0.567944 0.119162,0.735729 0.194781,0.179978 1.165715,0.181719 1.322106,-0.0418 0.12925,-0.184694 0.08549,-0.481584 0.08556,-0.693928 V 55.17567 c 0,-0.491236 -0.03404,-0.963458 -0.07257,-1.451429 m 25.183374,0.179832 c 0.328313,-0.0717 0.57121,0.18738 0.668891,0.473602 0.157189,0.460973 0.116332,1.262089 0.0402,1.741351 -0.0381,0.240066 -0.161834,0.473166 -0.423019,0.514386 -0.303784,0.04797 -0.534561,-0.179251 -0.639281,-0.442105 -0.184695,-0.463514 -0.156972,-1.32559 -0.06677,-1.813632 0.04216,-0.227947 0.183896,-0.422076 0.419971,-0.473602 m -14.442803,0.03788 c 0.08273,0.09826 0.186146,0.194709 0.24638,0.309372 0.368518,0.701402 -1.327984,0.717876 -0.82042,-0.06045 0.05,-0.07671 0.135927,-0.122283 0.217207,-0.157117 0.112631,-0.04826 0.237961,-0.06677 0.356833,-0.0918 m 71.482857,1.524 c -0.098,-0.261983 -0.15675,-0.538916 -0.25835,-0.797996 -0.13789,-0.350955 -0.65823,-0.729343 -0.97319,-0.312129 -0.13788,0.182662 -0.0747,0.532964 -0.0747,0.747267 0,0.541093 -0.24601,1.66878 0.43543,1.814286 l 0.14515,-1.596571 0.46736,1.015927 0.27432,0.402046 0.35487,-0.33049 0.50002,-1.232626 c 0.127,0.534343 -0.15313,1.409192 0.43543,1.669143 0.32874,-0.780216 0.0356,-1.857901 0,-2.685143 l -0.7025,0.06916 -0.24384,0.583982 -0.35995,0.653143 M 81.212763,54.203793 c 0.280706,-0.104648 0.552196,0.05588 0.657642,0.320113 0.180558,0.452192 0.224899,1.666748 -0.299067,1.874375 -0.362929,0.143836 -0.634637,-0.08825 -0.759315,-0.425414 -0.16539,-0.446895 -0.130628,-1.570954 0.40074,-1.769074 m 57.545947,0.318734 c -0.0188,0.53438 0.82233,0.03785 0.89989,0.445153 0.15748,0.370768 0.0406,0.971151 0.0435,1.369133 0.001,0.169744 -0.0305,0.453789 0.16692,0.532529 0.30189,0.120541 0.33745,-0.267934 0.34108,-0.46003 0.008,-0.427374 -0.11756,-1.044666 0.0537,-1.443446 0.15094,-0.350085 0.57331,-0.158859 0.73152,-0.410319 0.10958,-0.173808 -0.16837,-0.243767 -0.27868,-0.267208 -0.36431,-0.07758 -0.72208,-0.02816 -1.08712,0.01727 -0.3077,0.03832 -0.59654,0.06989 -0.87086,0.216916 m 45.57486,51.961145 0.27795,0.64371 0.31641,0.78413 0.42164,0.82188 0.508,-0.29029 c 0.49479,-0.23915 0.37592,-0.56707 0.29029,-0.94343 l 1.016,-0.508 c 0.41056,-0.20352 0.51792,-0.35714 0.72569,-0.3323 0.46881,0.0718 0.85562,0.83907 1.33314,0.17577 0.21118,-0.2945 -0.0421,-0.79372 -0.17925,-1.07718 -0.36359,-0.75388 -0.7787,-1.98433 -1.80703,-1.87649 -0.52832,0.0555 -0.99423,0.43122 -1.45143,0.66664 -0.44922,0.23129 -0.99568,0.37288 -1.35564,0.74583 -0.24964,0.25929 -0.22984,0.86019 -0.0958,1.18973 m 3.19314,-0.72571 c -0.54864,0.10523 -1.17493,0.74821 -1.73445,0.68718 -0.26852,-0.0293 -0.40132,-0.38492 -0.29247,-0.61033 0.11104,-0.22998 0.37375,-0.28332 0.57549,-0.40277 0.38463,-0.22766 1.09366,-0.78167 1.34475,-0.10305 0.0515,0.1381 0.0769,0.28535 0.10668,0.42897 m -27.432,15.24 c 0.93327,-0.13789 1.78018,-0.73297 2.61257,-1.14373 0.41802,-0.20538 0.8099,-0.36286 0.85199,-0.88174 0.0261,-0.32004 -0.0675,-0.63065 -0.28738,-0.86796 -0.14514,-0.15602 -0.35995,-0.25254 -0.44922,-0.45429 -0.2032,-0.45793 -0.0842,-0.94851 -0.62339,-1.22211 -0.39116,-0.19812 -0.8128,-0.0123 -1.16114,0.17127 -0.54864,0.28884 -1.13139,0.53413 -1.66914,0.83893 -0.2511,0.14296 -0.67274,0.3331 -0.70177,0.65967 -0.0268,0.30698 0.20393,0.60597 0.33093,0.86796 0.33746,0.69305 0.68144,1.38321 1.09655,2.032 m 1.60803,-3.22226 c -0.20392,0.42382 -0.5884,0.56905 -1.02746,0.69242 -0.14296,0.0399 -0.34036,0.12192 -0.48477,0.0472 -0.35705,-0.18578 0.0308,-0.51804 0.2435,-0.61248 0.21022,-0.16585 0.73041,-0.48045 1.02142,-0.37812 0.0929,0.0334 0.23454,0.20367 0.23454,0.20367 m -1.52269,0.51188 -0.0726,0.21772 0.0726,-0.21772 m 2.17715,0.58057 c -0.22135,0.41729 -0.64008,0.65823 -1.08857,0.79031 -0.16547,0.0486 -0.54502,0.0987 -0.58638,-0.15313 -0.0363,-0.22134 0.29536,-0.34181 0.44123,-0.42599 0.45357,-0.25908 0.69425,-0.55553 1.18992,-0.27323 m -24.41277,23.06719 c 0.30915,-0.016 0.78014,-0.10959 0.7874,-0.50945 0.004,-0.1974 -0.13353,-0.40423 -0.21191,-0.57912 -0.19667,-0.43543 -0.42382,-0.85127 -0.57549,-1.30629 0.26633,-0.11829 0.65967,-0.32367 0.78885,-0.60452 0.0885,-0.19159 0.0268,-0.50945 -0.21772,-0.54138 -0.26706,-0.0348 -0.63645,0.20175 -0.86142,0.32294 -0.55299,0.29754 -1.11615,0.57694 -1.66842,0.87739 -0.24456,0.1328 -0.56533,0.33455 -0.39914,0.6604 0.2511,0.49276 0.88029,-0.14224 1.26202,-0.004 0.19957,0.0719 0.30044,0.2794 0.40059,0.45067 0.23296,0.39842 0.51308,0.81425 0.69524,1.23372 m -25.03715,0 0.29029,-0.29029 -0.29029,-1.16114 c -0.22032,-0.19377 -0.48586,-0.61976 -0.30567,-0.92166 0.15741,-0.26343 1.12718,-0.71047 0.54857,-1.10744 -0.22337,-0.15312 -0.54878,0.0733 -0.7509,0.16837 -0.60568,0.28593 -1.21056,0.57621 -1.81399,0.8665 -0.21372,0.10305 -0.51889,0.2315 -0.55641,0.49929 -0.0304,0.21772 0.1212,0.4035 0.33978,0.42092 0.37549,0.029 0.65503,-0.35125 1.03603,-0.0994 0.50829,0.33528 0.4826,1.21122 0.96905,1.5494 0.14166,0.0987 0.36961,0.066 0.53354,0.0755 m -2.61257,0.36285 h -0.0726 l -0.87086,0.34907 -1.07521,0.33311 -0.59393,-0.53703 c 0.0875,-0.52542 0.30625,-0.74096 0.79829,-0.94996 0.32047,-0.13571 0.92412,-0.3244 1.00606,-0.72064 0.071,-0.34253 -0.29015,-0.51961 -0.57071,-0.43543 -0.55909,0.1691 -1.16869,0.49059 -1.66907,0.79031 -0.2413,0.14369 -0.49377,0.31713 -0.59929,0.59 -0.1884,0.48768 0.0561,0.95649 0.2712,1.37886 0.13273,0.26053 0.26227,0.54574 0.50074,0.72862 0.72731,0.55952 1.63924,-0.14877 2.29478,-0.49494 0.48006,-0.25327 0.98509,-0.46736 0.58057,-1.03197 m 22.17071,1.65537 c 0.14587,0.15913 0.23935,0.30116 0.40191,0.40566 0.26343,0.16909 0.64153,0.12265 0.78958,-0.1778 0.0922,-0.18723 -0.0152,-0.39261 0.0675,-0.58275 0.1778,-0.40567 0.8694,-0.8382 1.31717,-0.72789 0.24747,0.061 0.44849,0.30045 0.65314,0.44341 0.13789,-0.15893 0.39479,-0.27069 0.49131,-0.45502 0.22207,-0.42454 -0.38535,-0.87086 -0.70902,-0.9964 0.0298,-0.17708 0.0254,-0.32803 -7.3e-4,-0.508 -0.0203,-0.14224 -0.0494,-0.27578 -0.11901,-0.4035 -0.55735,-1.02326 -1.96161,-0.0218 -2.63798,0.33528 -0.28665,0.15095 -0.76635,0.30698 -0.94125,0.59508 -0.37374,0.61541 0.31134,1.49128 0.64443,2.01458 m 2.11111,-2.32373 c -0.0515,0.67927 -1.18146,1.28742 -1.66914,0.72571 -6e-4,-0.13563 0.10648,-0.2015 0.2356,-0.27123 0.4522,-0.28507 0.95167,-0.48067 1.43354,-0.45454 m -29.68217,3.30078 -0.20286,-0.28331 c 0.30858,-0.13281 0.70541,-0.37006 1.00157,-0.52609 0.17185,-0.0907 0.39842,-0.14152 0.5379,-0.28231 0.22962,-0.2315 0.0803,-0.58057 -0.24224,-0.59218 -0.65801,-0.0225 -1.20389,0.76708 -1.89223,0.63282 0.0527,-0.26382 0.13595,-0.28808 0.70107,-0.55196 0.53278,-0.26311 0.799,-0.36381 1.04064,-0.54894 0.23398,-0.21917 0.19145,-0.71193 -0.21771,-0.6771 -0.4056,0.0341 -0.82216,0.3469 -1.16115,0.54429 -0.30088,0.17562 -0.63347,0.27287 -0.94342,0.42309 -0.16975,0.0827 -0.52339,0.23804 -0.56846,0.44777 -0.0589,0.27359 0.22302,0.77796 0.33862,1.016 0.34537,0.71047 0.7784,1.55157 1.75384,1.29395 0.2926,-0.0769 0.59196,-0.29537 0.87086,-0.4231 0.27853,-0.12772 1.1496,-0.42309 1.16114,-0.79828 0.0215,-0.70177 -0.76098,-0.46809 -1.13698,-0.254 -0.0987,0.0559 -0.16234,0.15603 -0.27816,0.18143 m 24.06201,1.36102 c -0.0831,-0.38755 1.38587,-1.15274 1.88226,-0.49017 0.25836,-0.0508 0.59436,-0.0929 0.71628,-0.36721 0.0907,-0.20537 -0.037,-0.4601 -0.11902,-0.64879 -0.23803,-0.54501 -0.56025,-1.30918 -1.10598,-1.60237 -0.48478,-0.25981 -0.94416,0.0363 -1.37814,0.25908 -0.61903,0.31786 -1.78308,0.69886 -1.72502,1.56101 0.0268,0.4064 0.30262,0.80917 0.48768,1.16114 0.13644,0.26053 0.32657,0.72789 0.60815,0.8607 0.48115,0.2286 0.64656,-0.25748 0.68938,-0.5739 m 0.81067,-2.39137 c 0.0624,0.21336 0.19304,0.37737 -0.0726,0.43543 -0.0189,0.36286 -0.92964,0.86795 -1.28306,0.70176 -0.39552,-0.18578 -0.0268,-0.62338 0.19594,-0.74095 0.16619,-0.0871 0.33601,-0.17054 0.50655,-0.24965 0.21916,-0.1016 0.41366,-0.13933 0.65314,-0.14659 m -6.38628,2.83029 c 0.34253,-0.0269 0.98044,-0.36649 1.27217,-0.16692 0.50292,0.34254 0.58565,1.68656 1.3404,1.59077 0.17997,-0.0232 0.34616,-0.11467 0.508,-0.19014 -0.0711,-0.48333 -0.30843,-0.88174 -0.53776,-1.30629 -0.11393,-0.21118 -0.27287,-0.47824 -0.17344,-0.72426 0.11176,-0.27867 0.42889,-0.36648 0.59436,-0.59726 0.11829,-0.16474 0.13353,-0.43978 -0.0595,-0.56025 -0.27214,-0.16982 -0.67709,0.13643 -0.91222,0.25327 -0.49422,0.24602 -0.96956,0.49784 -1.45143,0.76781 -0.41366,0.2315 -0.78232,0.41583 -0.58057,0.93327 m -20.90058,-0.58058 c -0.4543,0.0675 -0.82114,0.28884 -1.23371,0.47535 -0.18818,0.0849 -0.43608,0.19521 -0.63979,0.0965 -0.39581,-0.19159 -0.55554,-0.83312 -0.7456,-1.1938 -0.10146,-0.19304 -0.25894,-0.41076 -0.50147,-0.40931 -0.900611,0.007 -0.253564,1.10817 -0.0686,1.46667 0.23782,0.46083 0.36148,1.00004 0.93944,1.12631 0.67165,0.14659 1.16789,-0.24094 1.74171,-0.50872 0.21605,-0.10015 0.51141,-0.16619 0.60822,-0.41366 0.0824,-0.20973 -0.0288,-0.44341 -0.10022,-0.63936 m -6.241141,0.36286 c -0.433989,0.26018 -0.847707,0.36213 -1.004606,0.73297 -0.102761,0.24312 0.120686,0.64298 0.222504,0.8636 0.307267,0.66548 0.669181,1.59294 1.580388,1.4986 0.586305,-0.061 1.47799,-0.58638 1.951518,-0.92746 0.218513,-0.15748 0.437167,-0.60307 0.06394,-0.73878 -0.210385,-0.0762 -0.515983,0.0522 -0.709168,0.13208 -0.467578,0.19449 -0.876953,0.44486 -1.378857,0.54356 l 0.07454,-0.37085 c 0.425073,-0.22124 1.117061,-0.47296 1.412338,-0.70066 0.124823,-0.15095 0.153053,-0.45938 -0.05835,-0.553 -0.204143,-0.09 -0.449652,0.0559 -0.630065,0.13934 -0.433759,0.20102 -0.831139,0.4355 -1.304304,0.53419 -0.163736,-0.54669 1.253359,-0.71562 1.685522,-1.26063 0.175405,-0.22134 0.05682,-0.53703 -0.237454,-0.54356 -0.267861,-0.006 -0.563299,0.1807 -0.796907,0.29174 m 25.182282,2.75336 0.21772,0.21771 -0.87086,0.508 c -0.30988,0.0196 -0.77506,0.19377 -0.97173,0.4543 -0.16909,0.22497 -0.0726,0.66983 0.24892,0.69596 0.21626,0.0174 0.53267,-0.18433 0.72281,-0.27795 0.61105,-0.30045 1.5748,-0.65097 1.8767,-1.30774 0.35632,-0.77506 -0.49857,-1.38393 -1.20251,-1.20033 -0.58855,0.15313 -1.14808,0.50002 -1.69019,0.7649 v -0.36285 l 1.47248,-0.76345 0.54718,-0.47317 -0.1328,-0.5051 c -0.43108,0.0747 -0.77506,0.30843 -1.16114,0.50002 -0.50583,0.2511 -1.17203,0.47171 -1.54578,0.91658 -0.36285,0.43252 -0.17054,1.20759 0.31351,1.46304 0.37157,0.19667 0.95649,0.0406 1.30484,-0.14732 m -26.924003,0.38825 -0.653143,0.36286 -1.32138,0.95867 0.0151,0.49276 c 0.338763,0.0922 0.623316,-0.0559 0.943501,-0.17707 0.780143,-0.29537 2.511552,-1.03923 1.909426,-2.13868 -0.393482,-0.71846 -1.377768,-0.28013 -1.909499,-0.0225 -0.16822,0.0813 -0.487607,0.31496 -0.683478,0.22279 -0.249428,-0.11684 0.310606,-0.46083 0.392104,-0.50655 0.439202,-0.24601 0.933849,-0.27867 1.299391,-0.66548 0.1569,-0.16618 0.27207,-0.4093 0.05711,-0.58637 -0.316484,-0.26053 -0.996769,0.18941 -1.285675,0.35632 -0.476577,0.27577 -1.309407,0.46519 -1.580751,0.98044 -0.560324,1.06463 0.765701,1.63068 1.583581,1.24025 0.405384,-0.19377 0.833773,-0.3331 1.233713,-0.51744 z"
       id="path1632"
       sodipodi:nodetypes="ccccccccccccccccccccccccccccccccccccccccccccccccccccsccccccssccccccscsccccccsccccsccccccscccsccccccsscsccscccccsccccsssssccccscsccccsccccccccccscscccccscccscccccsscsccccccccccccccscccccccccccccccccccccccccsccccccccccccccccccccccccsccccccscccsccscsccsccccccssccscccccccccccscccssccccccccccccccccccccccccsccccccccccccscccssccccccccccccccccccccccccccccccccccccccscccccccccccccccccccccccccccccccscccccccccccccccccccccccccccccccccccccccccccccccccccccscccccccccccccccccccccccccccccccccccccccccccccccccccsccccccccc" />
  </g>
</svg>
