<?xml version="1.0" encoding="UTF-8" standalone="no"?>
<!-- Created with Inkscape (http://www.inkscape.org/) -->

<svg
   width="43.764999mm"
   height="39.264999mm"
   viewBox="0 0 43.765 39.265"
   version="1.1"
   id="svg5"
   xml:space="preserve"
   sodipodi:docname="pokemon_oak.svg"
   inkscape:version="1.1.2 (0a00cf5339, 2022-02-04)"
   xmlns:inkscape="http://www.inkscape.org/namespaces/inkscape"
   xmlns:sodipodi="http://sodipodi.sourceforge.net/DTD/sodipodi-0.dtd"
   xmlns="http://www.w3.org/2000/svg"
   xmlns:svg="http://www.w3.org/2000/svg"><sodipodi:namedview
     id="namedview110"
     pagecolor="#ffffff"
     bordercolor="#666666"
     borderopacity="1.0"
     inkscape:pageshadow="2"
     inkscape:pageopacity="0.0"
     inkscape:pagecheckerboard="0"
     inkscape:document-units="mm"
     showgrid="false"
     fit-margin-top="0"
     fit-margin-left="0"
     fit-margin-right="0"
     fit-margin-bottom="0"
     inkscape:zoom="4.3079155"
     inkscape:cx="89.834632"
     inkscape:cy="69.407118"
     inkscape:window-width="1920"
     inkscape:window-height="1136"
     inkscape:window-x="0"
     inkscape:window-y="0"
     inkscape:window-maximized="1"
     inkscape:current-layer="g1860"
     inkscape:snap-page="true" /><defs
     id="defs2"><linearGradient
       gradientTransform="matrix(1,0,0,-1,-564,-925)"
       y2="-974.57031"
       x2="838.9209"
       y1="-974.57031"
       x1="573.17767"
       gradientUnits="userSpaceOnUse"
       id="SVGID_9_"><stop
         id="stop190"
         style="stop-color:#3C5AA6"
         offset="0" /><stop
         id="stop192"
         style="stop-color:#2B73B9"
         offset="0.9331" /><stop
         id="stop194"
         style="stop-color:#2A75BB"
         offset="1" /></linearGradient><linearGradient
       gradientTransform="matrix(0.15482491,0,0,-0.15482491,-44.821974,-135.27608)"
       y2="-982.76947"
       x2="655.63483"
       y1="-982.76947"
       x1="639.70612"
       gradientUnits="userSpaceOnUse"
       id="SVGID_8_"><stop
         id="stop177"
         style="stop-color:#3C5AA6"
         offset="0" /><stop
         id="stop179"
         style="stop-color:#2B73B9"
         offset="0.9331" /><stop
         id="stop181"
         style="stop-color:#2A75BB"
         offset="1" /></linearGradient><linearGradient
       gradientTransform="translate(-408,-677.5)"
       y2="750.61151"
       x2="448.0217"
       y1="726.20209"
       x1="437.49219"
       gradientUnits="userSpaceOnUse"
       id="SVGID_7_"><stop
         id="stop74"
         style="stop-color:#105FA1"
         offset="0" /><stop
         id="stop76"
         style="stop-color:#1D2C5E"
         offset="1" /></linearGradient><linearGradient
       gradientTransform="matrix(0.55553333,0,0,0.55553333,-187.8334,-381.40456)"
       y2="750.20251"
       x2="480.91931"
       y1="732.30957"
       x1="471.82129"
       gradientUnits="userSpaceOnUse"
       id="SVGID_6_"><stop
         id="stop65"
         style="stop-color:#105FA1"
         offset="0" /><stop
         id="stop67"
         style="stop-color:#1D2C5E"
         offset="1" /></linearGradient><linearGradient
       gradientTransform="translate(-408,-677.5)"
       y2="719.48871"
       x2="576.56763"
       y1="698.26068"
       x1="589.91107"
       gradientUnits="userSpaceOnUse"
       id="SVGID_5_"><stop
         id="stop52"
         style="stop-color:#125D9E"
         offset="0" /><stop
         id="stop54"
         style="stop-color:#1D2C5E"
         offset="1" /></linearGradient><linearGradient
       gradientTransform="translate(-408,-677.5)"
       y2="703.336"
       x2="631.74219"
       y1="714.83398"
       x1="632.34772"
       gradientUnits="userSpaceOnUse"
       id="SVGID_4_"><stop
         id="stop39"
         style="stop-color:#125D9E"
         offset="0" /><stop
         id="stop41"
         style="stop-color:#1D2C5E"
         offset="1" /></linearGradient><linearGradient
       gradientTransform="translate(-408,-677.5)"
       y2="704.54773"
       x2="491.9368"
       y1="717.28607"
       x1="493.45309"
       gradientUnits="userSpaceOnUse"
       id="SVGID_3_"><stop
         id="stop32"
         style="stop-color:#0070B6"
         offset="0" /><stop
         id="stop34"
         style="stop-color:#1D2C5E"
         offset="1" /></linearGradient><linearGradient
       gradientTransform="translate(-408,-677.5)"
       y2="680.94922"
       x2="561.64203"
       y1="694.57318"
       x1="548.92682"
       gradientUnits="userSpaceOnUse"
       id="SVGID_2_"><stop
         id="stop21"
         style="stop-color:#0070B6"
         offset="0" /><stop
         id="stop23"
         style="stop-color:#1D2C5E"
         offset="1" /></linearGradient><linearGradient
       gradientTransform="translate(-408,-677.5)"
       y2="714.04132"
       x2="416.7337"
       y1="732.71002"
       x1="426.75101"
       gradientUnits="userSpaceOnUse"
       id="SVGID_1_"><stop
         id="stop12"
         style="stop-color:#0070B6"
         offset="0" /><stop
         id="stop14"
         style="stop-color:#1D2C5E"
         offset="1" /></linearGradient><linearGradient
       gradientTransform="matrix(1,0,0,-1,-564,-925)"
       y2="-974.57031"
       x2="838.9209"
       y1="-974.57031"
       x1="573.17767"
       gradientUnits="userSpaceOnUse"
       id="linearGradient1009"><stop
         id="stop1003"
         style="stop-color:#3C5AA6"
         offset="0" /><stop
         id="stop1005"
         style="stop-color:#2B73B9"
         offset="0.9331" /><stop
         id="stop1007"
         style="stop-color:#2A75BB"
         offset="1" /></linearGradient><linearGradient
       gradientTransform="matrix(0.15482492,0,0,-0.15482492,-44.821978,-135.27609)"
       y2="-982.76947"
       x2="655.63483"
       y1="-982.76947"
       x1="639.70612"
       gradientUnits="userSpaceOnUse"
       id="SVGID_8_-5"><stop
         id="stop177-0"
         style="stop-color:#3C5AA6"
         offset="0" /><stop
         id="stop179-8"
         style="stop-color:#2B73B9"
         offset="0.9331" /><stop
         id="stop181-3"
         style="stop-color:#2A75BB"
         offset="1" /></linearGradient></defs><g
     id="layer1"
     transform="translate(-42.841995,-4.3614862)"><g
       id="g1860"><path
         style="stroke:none;stroke-width:1.00157;stroke-linecap:round;paint-order:markers stroke fill;fill:#000000"
         d="M 0.5,0.5 V 147.90234 H 164.91016 V 0.5 Z"
         transform="matrix(0.26458333,0,0,0.26458333,42.841995,4.3614862)"
         id="rect888" /><path
         style="stroke:none;stroke-width:1.00157;stroke-linecap:round;paint-order:markers stroke fill;fill:#ffffff"
         d="m 89.402344,14.5 5.955078,8.888672 -8.541016,4.589844 c 3.914752,0.08193 7.44892,1.731687 9.886719,4.726562 l 0.833984,1.03125 1.148438,-7.035156 h 10.060543 l 0.26368,-1.574219 h 9.55664 l 2.16797,13.685547 c 0.88475,-0.642512 1.86115,-1.170256 2.9121,-1.572266 3.13239,-1.183203 6.4598,-1.037777 9.14454,0.378907 0.0152,0.0124 0.0326,0.03006 0.0605,0.04102 l 0.15625,-1.441406 -2.16601,-0.486328 -0.0996,-7.990234 14.37109,3.162109 1.07227,5.304687 1.16211,-4.791015 12.23046,2.972656 -11.74414,35.400391 -9.02148,-2.832032 -0.0644,-3.546875 -8.65039,-1.220703 0.51757,-4.654297 c -0.40552,0.207149 -0.82888,0.401958 -1.25781,0.560547 -1.81167,0.683505 -3.68731,0.922001 -5.4668,0.720703 l 0.68946,4.373047 -12.99805,-2.292968 -0.66992,-5.791016 -1.83008,3.527344 -2.99414,-5.53125 -0.62891,4.125 -11.464839,-1.802735 0.892578,-5.466797 c -1.780657,1.066757 -3.785124,1.844301 -6.126953,2.410157 -0.875407,0.214749 -1.746442,0.348527 -2.59961,0.419921 v 10.175782 l -21.261718,-10.509766 0.01562,9.125 -10.175781,1.498047 -0.439453,-4.716797 c -1.202513,1.175596 -2.62105,2.162806 -4.216797,2.839844 -3.181542,1.349476 -6.620711,1.344893 -9.439453,-0.0098 -2.609835,-1.256931 -4.489934,-3.524497 -5.296875,-6.396484 -0.389745,-1.371628 -0.481205,-2.805187 -0.308594,-4.220703 -0.76481,0.729702 -1.592775,1.426845 -2.480468,2.083984 l 3.085937,11.847656 0.671875,2.591797 -2.546875,0.808594 -5.810547,1.861328 -2.398437,0.773438 -1.035156,-2.304688 -10.740235,-23.96875 -0.326172,0.150391 -2.335937,1.148437 c -0.0088,0.0012 -1.3320315,-2.238281 -1.3320315,-2.238281 L 5.4667969,36.023438 4.0742188,33.671875 6.3808594,32.210938 c 1.8245442,-1.162137 3.8470036,-2.213527 6.0156246,-3.138672 5.899049,-2.513258 11.89331,-3.407638 16.884766,-2.535157 2.031107,0.22997 3.973052,0.90534 5.601562,1.990235 2.323106,1.29614 4.216265,3.350157 5.292969,5.835937 0.911687,2.10367 1.040692,4.462729 0.5,6.855469 0.795825,-0.576975 1.659621,-1.0728 2.585938,-1.476562 3.125953,-1.320707 6.49667,-1.351072 9.300781,-0.0918 L 52.199219,35.722656 49.744141,36.359375 49.375,28.609375 63.800781,24 l -0.125,5.941406 3.226563,-6.18164 9.226562,8.185546 c 1.217726,-1.145169 2.68679,-2.093682 4.369141,-2.78125 l -1.857422,-2.263671 z"
         transform="matrix(0.26458333,0,0,0.26458333,42.841995,4.3614862)"
         id="path19342" /><path
         id="path13071"
         style="fill:#000000;stroke-width:0.0737383"
         d="m 55.592638,15.17943 c -0.331536,0.0019 -0.680478,0.07202 -1.028878,0.219109 -1.293098,0.557059 -2.096729,2.0155 -1.751314,3.240629 0.356561,1.267087 1.691581,1.832526 3.026172,1.267106 0.521915,-0.224652 0.965063,-0.592024 1.282609,-1.037146 0.333802,-0.460294 0.533221,-1.004222 0.550871,-1.547193 0.0071,-0.180371 -0.0076,-0.363572 -0.04496,-0.542085 -0.01099,-0.05109 -0.02183,-0.103263 -0.03824,-0.152963 -0.130517,-0.4685 -0.410072,-0.84224 -0.776697,-1.090889 -0.343175,-0.233169 -0.765237,-0.359124 -1.219563,-0.356568 z m -0.133842,0.557072 c 0.07803,0 0.153733,0.0075 0.226343,0.02067 -0.379012,0.03313 -0.674377,0.318318 -0.674377,0.664042 0,0.370807 0.336026,0.668176 0.750341,0.668176 0.413225,0 0.750342,-0.297217 0.750342,-0.668176 0,-0.06223 -0.01057,-0.120853 -0.0279,-0.173633 0.128347,0.175256 0.203088,0.388019 0.203088,0.613916 0,0.652272 -0.545692,1.16427 -1.238684,1.16427 -0.681074,0 -1.227315,-0.511687 -1.227315,-1.16427 0,-0.611556 0.545786,-1.124996 1.238167,-1.124996 z" /><path
         id="path13081"
         style="fill:#000000;stroke-width:0.0737383"
         d="m 76.743801,14.636828 c -0.301453,-0.0041 -0.619252,0.05025 -0.938961,0.169498 -0.338135,0.130053 -0.642218,0.322564 -0.904336,0.557589 -0.235026,0.213813 -0.433771,0.46156 -0.588594,0.725537 -0.310576,0.540029 -0.435351,1.156919 -0.299726,1.734261 0.116274,0.480577 0.380193,0.863235 0.738458,1.122413 0.225271,0.160243 0.483962,0.270544 0.767911,0.326595 0.407344,0.08097 0.864793,0.04488 1.324467,-0.130225 0.232857,-0.08593 0.449175,-0.205083 0.645956,-0.345199 0.263358,-0.187648 0.491691,-0.416796 0.679027,-0.671793 0.437385,-0.598243 0.636587,-1.340678 0.469222,-2.033985 -0.04691,-0.200344 -0.124047,-0.383917 -0.223758,-0.550354 -0.131445,-0.210716 -0.298233,-0.391895 -0.499194,-0.534334 -0.324411,-0.233219 -0.729885,-0.363955 -1.170472,-0.370003 z m -0.291455,0.490409 c 0.02138,-7e-5 0.04296,1e-4 0.0646,0.001 0.07865,0.0028 0.153675,0.01164 0.225827,0.02791 -0.380095,0.0175 -0.687856,0.290723 -0.701768,0.636137 -0.01626,0.368485 0.308751,0.682378 0.722437,0.696598 0.414004,0.01936 0.761651,-0.265694 0.77773,-0.635103 0.0018,-0.06178 -0.006,-0.119604 -0.02067,-0.178284 0.120457,0.183777 0.186899,0.399499 0.178801,0.624768 -0.02756,0.649955 -0.593281,1.142401 -1.286743,1.114661 -0.68154,-0.02958 -1.204833,-0.562379 -1.178224,-1.21543 0.0231,-0.591551 0.555175,-1.070113 1.218014,-1.072286 z" /><path
         style="stroke:none;stroke-width:1.00157;stroke-linecap:round;paint-order:markers stroke fill;fill:#ffffff"
         d="m 121.27148,104.88477 h 3.69141 l 6.92578,11.88867 v -11.88867 h 3.59571 v 17.47265 h -3.59571 l -7.02344,-12.08008 v 12.08008 h -3.59375 z"
         transform="matrix(0.26458333,0,0,0.26458333,42.841995,4.3614862)"
         id="path19366" /><path
         style="stroke:none;stroke-width:1.00157;stroke-linecap:round;paint-order:markers stroke fill;fill:#ffffff"
         d="m 95.839844,104.88477 h 3.595703 v 17.47265 h -3.595703 z"
         transform="matrix(0.26458333,0,0,0.26458333,42.841995,4.3614862)"
         id="path19364" /><path
         style="stroke:none;stroke-width:1.00157;stroke-linecap:round;paint-order:markers stroke fill;fill:#ffffff"
         d="m 62.955078,104.88477 h 9.371094 c 1.48605,0 2.589897,0.38428 3.380859,1.19921 0.8389,0.86287 1.31836,2.13327 1.31836,3.52344 0,2.1332 -0.983798,3.54746 -2.949219,4.31446 2.229075,0.95874 2.326001,1.19832 2.421875,6.35156 0,0.76699 0.216301,1.12591 0.767578,1.4375 v 0.64648 H 73.40625 c -0.431434,-0.8389 -0.527344,-1.34226 -0.527344,-2.99609 0,-0.26366 -5.31e-4,-0.69499 0.02344,-1.15039 v -0.71875 c 0,-1.43812 -0.67056,-2.06055 -2.228516,-2.06055 h -4.123047 v 6.92578 H 62.95508 Z"
         transform="matrix(0.26458333,0,0,0.26458333,42.841995,4.3614862)"
         id="path19362" /><path
         style="stroke:none;stroke-width:1.00157;stroke-linecap:round;paint-order:markers stroke fill;fill:#ffffff"
         d="m 46.945312,104.88477 h 12.63086 v 2.99609 h -9.03711 v 3.95508 h 8.365235 v 2.99609 h -8.365235 v 4.5293 h 9.46875 v 2.99609 h -13.0625 z"
         transform="matrix(0.26458333,0,0,0.26458333,42.841995,4.3614862)"
         id="path19360" /><path
         style="stroke:none;stroke-width:1.00157;stroke-linecap:round;paint-order:markers stroke fill;fill:#ffffff"
         d="m 29.927734,104.88477 h 3.619141 l 3.882813,13.1582 3.810546,-13.1582 h 3.619141 l -5.992187,17.47265 h -3.044922 z"
         transform="matrix(0.26458333,0,0,0.26458333,42.841995,4.3614862)"
         id="path19358" /><path
         style="stroke:none;stroke-width:1.00157;stroke-linecap:round;paint-order:markers stroke fill;fill:#ffffff"
         d="m 110.3418,104.59766 c 2.54066,0 4.4582,0.76609 5.99218,2.41992 1.55796,1.65383 2.44336,4.12305 2.44336,6.85547 0,2.46876 -0.93334,5.00934 -2.44336,6.61523 -1.51001,1.62986 -3.47602,2.41992 -5.96875,2.41992 -2.49273,0 -4.45873,-0.79006 -5.96875,-2.41992 -1.55795,-1.65383 -2.44336,-4.1218 -2.44336,-6.73437 0,-2.61258 0.88541,-5.05853 2.44336,-6.73633 1.48605,-1.6059 3.50052,-2.41992 5.94532,-2.41992 z"
         transform="matrix(0.26458333,0,0,0.26458333,42.841995,4.3614862)"
         id="path19356" /><path
         style="stroke:none;stroke-width:1.00157;stroke-linecap:round;paint-order:markers stroke fill;fill:#ffffff"
         d="m 86.037109,104.59766 c 4.410214,0 6.831501,1.98817 6.855469,5.60742 h -3.355469 c -0.119842,-1.77367 -1.390956,-2.73242 -3.667968,-2.73242 -1.869548,0 -3.019532,0.83993 -3.019532,2.1582 0,1.27033 0.742006,1.774 3.306641,2.27734 l 2.732422,0.52735 c 3.235755,0.62318 4.626953,2.06002 4.626953,4.8164 0,3.57132 -2.659927,5.65625 -7.166016,5.65625 -4.458151,0 -7.024517,-2.03629 -7.240234,-5.77539 h 3.5 c 0.119843,1.86955 1.486848,2.90039 3.931641,2.90039 2.181138,0 3.523437,-0.88752 3.523437,-2.34961 0,-1.41414 -0.888301,-2.08561 -3.285156,-2.54101 l -2.443359,-0.47852 c -3.547347,-0.67112 -4.914063,-1.98882 -4.914063,-4.69726 0,-3.40354 2.420737,-5.36914 6.615234,-5.36914 z"
         transform="matrix(0.26458333,0,0,0.26458333,42.841995,4.3614862)"
         id="path19354" /><path
         style="stroke:none;stroke-width:1.00157;stroke-linecap:round;paint-order:markers stroke fill;fill:#ffffff"
         d="m 93.767578,82.115234 h 3.59375 v 7.669922 l 6.832032,-7.669922 h 4.24219 l -6.97461,7.525391 7.71875,9.947266 h -4.29102 l -5.728514,-7.71875 -1.798828,1.871093 v 5.847657 h -3.59375 z"
         transform="matrix(0.26458333,0,0,0.26458333,42.841995,4.3614862)"
         id="path19348" /><path
         style="stroke:none;stroke-width:1.00157;stroke-linecap:round;paint-order:markers stroke fill;fill:#ffffff"
         d="m 81.519531,82.115234 h 3.978516 l 6.039062,17.472657 h -3.689453 l -1.15039,-3.523438 h -6.544922 l -1.173828,3.523438 h -3.667969 z"
         transform="matrix(0.26458333,0,0,0.26458333,42.841995,4.3614862)"
         id="path19346" /><path
         style="stroke:none;stroke-width:1.00157;stroke-linecap:round;paint-order:markers stroke fill;fill:#ffffff"
         d="m 66.347656,81.826172 c 2.540667,0 4.4582,0.768045 5.992188,2.421875 1.557956,1.65383 2.443359,4.123053 2.443359,6.855469 0,2.468761 -0.93334,5.009341 -2.443359,6.615234 -1.510019,1.629862 -3.476021,2.41992 -5.96875,2.41992 -2.49273,0 -4.458731,-0.790058 -5.96875,-2.41992 -1.557956,-1.65383 -2.44336,-4.123756 -2.44336,-6.736328 0,-2.612573 0.885404,-5.056576 2.44336,-6.734375 1.48605,-1.605893 3.50052,-2.421875 5.945312,-2.421875 z"
         transform="matrix(0.26458333,0,0,0.26458333,42.841995,4.3614862)"
         id="path19344" /><path
         style="fill:#000000;stroke-width:0.0737383"
         d="m 81.507563,21.9545 -1.319728,-0.3931 -0.115035,-4.865528 -0.663734,3.753421 -1.439717,-0.229761 0.103114,-1.080678 c 0.940096,-0.794406 1.438478,-2.047559 1.165367,-3.1832 -0.11999,-0.502871 -0.378547,-0.940716 -0.743005,-1.273589 l 0.121538,-1.274519 -0.544365,-0.144916 0.03638,-0.680456 2.48045,0.498537 0.834042,3.955157 0.855407,-3.545955 1.887006,0.416943 z"
         id="path13083" /><path
         style="fill:#000000;stroke-width:0.0737383"
         d="m 73.041737,19.888672 -0.505658,-3.349637 -0.715137,1.847835 -1.070769,-2.309523 h -0.01208 l -0.423136,2.6746 -1.784667,-0.310579 0.250971,-1.492512 c 0.06735,-0.06332 0.133614,-0.126801 0.198795,-0.193841 l 0.578426,-0.595611 -0.562169,-0.503491 0.597314,-3.554315 h 1.800614 l 0.450695,2.460477 0.505039,-2.85141 h 1.287989 l 0.534455,3.473961 c -0.680146,0.774744 -1.010542,1.816251 -0.783259,2.769044 0.175726,0.738669 0.629673,1.333507 1.280402,1.680934 0.06549,0.03298 0.133304,0.06565 0.203285,0.09382 l 0.06812,0.450385 z"
         id="path13079" /><path
         id="path13077"
         style="fill:#000000;stroke-width:0.0737383"
         d="m 65.698481,12.487088 c -0.250089,0.003 -0.509851,0.03539 -0.776697,0.09974 -0.542507,0.130363 -1.019966,0.372924 -1.393713,0.706417 -0.152348,0.134698 -0.287782,0.284437 -0.402043,0.448551 -0.396817,0.562479 -0.558063,1.280362 -0.369486,2.083594 0.02958,0.124789 0.06911,0.241584 0.119889,0.357084 0.407654,0.953721 1.481548,1.541806 2.762105,1.415934 0.169069,-0.01486 0.341969,-0.04434 0.518315,-0.08475 0.806792,-0.194924 1.417675,-0.483966 1.953369,-0.927075 0.129743,-0.108842 0.25782,-0.227802 0.379822,-0.353984 L 68.208405,15.978348 67.27978,15.14274 c -0.272956,0.320178 -0.582711,0.613784 -1.136365,0.748792 -0.185015,0.04428 -0.435633,0.08606 -0.593245,0.05633 l 2.324406,-2.474268 c -0.514551,-0.631396 -1.282919,-0.997132 -2.176095,-0.986506 z m -0.400492,1.060401 c 0.329372,-0.0068 0.661798,0.108312 0.923974,0.348816 0.03205,0.02911 0.06324,0.06133 0.09405,0.09353 l -1.746146,1.97714 c -0.048,-0.03422 -0.09591,-0.06904 -0.140043,-0.111621 -0.542042,-0.494511 -0.580911,-1.336497 -0.08423,-1.876371 0.254583,-0.278851 0.601774,-0.424213 0.952397,-0.431498 z" /><path
         style="fill:#000000;stroke-width:0.0737383"
         d="m 62.035234,15.855328 -0.776447,-0.299586 0.723806,-0.703525 c -0.03096,0.322965 -0.01502,0.660638 0.05264,1.003111 z"
         id="path13075" /><path
         style="fill:#000000;stroke-width:0.0737383"
         d="m 64.933711,19.900283 -5.582212,-2.791957 0.0099,2.925262 -1.444052,0.196937 -0.100636,-1.205776 c 0.445895,-0.764526 0.608926,-1.665452 0.376224,-2.491598 -0.12773,-0.454101 -0.363684,-0.848285 -0.684326,-1.164128 l -0.207156,-2.458465 -0.648406,0.16814 -0.02864,-0.621622 2.318968,-0.690519 0.142129,2.391735 1.708338,-2.400251 1.670096,1.590517 -2.335534,2.460477 2.194179,0.867949 c 0.245088,0.464474 0.61899,0.859123 1.088109,1.149884 0.453483,0.279924 0.973075,0.445431 1.522703,0.499775 z"
         id="path13073" /><path
         id="path13069"
         style="fill:#000000;stroke-width:0.0737383"
         d="m 49.557348,12.043704 c -0.948204,-0.0019 -2.025795,0.222939 -3.141928,0.697632 -0.530275,0.224032 -1.029064,0.481232 -1.48363,0.77153 l 1.143083,1.931148 c 0.291226,-0.142749 0.608613,-0.294213 0.780314,-0.384473 l 3.156396,7.049699 1.538408,-0.491443 -0.95033,-3.646806 c 1.8178,-1.121861 2.736213,-2.94992 2.18643,-4.220414 -0.225425,-0.52176 -0.616503,-0.931744 -1.12758,-1.219564 -0.372509,-0.247255 -0.797639,-0.365617 -1.19941,-0.410827 -0.28391,-0.05016 -0.585686,-0.07586 -0.901753,-0.07648 z m 0.81287,2.16886 c 0.612495,1.5e-4 1.104235,0.355205 1.199927,0.868681 0.193841,1.03454 -0.536534,1.595816 -1.262972,2.062923 L 50.128372,16.56901 49.735631,15.305521 49.486034,14.450793 c 0.302586,-0.165034 0.605777,-0.238297 0.884184,-0.238229 z" /><path
         style="fill:#000000;stroke-width:0.0737383"
         d="m 66.374667,9.2424458 0.833267,1.1319252 -2.382291,1.181005 -0.164579,-0.250043 z"
         id="path13067" /><path
         style="fill:#000000;stroke-width:0.0737383"
         d="m 68.390177,14.066171 0.157767,-0.167675 -0.19059,1.180849 -0.497142,-0.447753 z"
         id="path13065" /><path
         style="fill:#000000;stroke-width:0.0737383"
         d="m 50.608381,16.229849 c -0.105745,-0.345104 -0.337673,-1.090277 -0.337673,-1.090277 0.0011,0.0034 -0.04567,-0.159469 -0.1011,-0.345879 0.205298,-0.03669 0.402544,-0.02183 0.564801,0.0562 0.09073,0.0432 0.250197,0.143987 0.285033,0.335041 0.0802,0.429484 -0.06456,0.736038 -0.411061,1.044913 z"
         id="path11132" /><path
         style="fill:#000000;stroke-width:0.0737383"
         d="m 64.573434,15.28712 c -0.170772,-0.31352 -0.136246,-0.711575 0.11906,-0.990569 0.245552,-0.267538 0.621777,-0.343712 0.942574,-0.220007 z"
         id="path15941" /><path
         style="stroke:none;stroke-width:1.00157;stroke-linecap:round;paint-order:markers stroke fill;fill:#000000"
         d="m 66.550781,107.88086 v 4.55469 h 4.337891 c 1.030648,0 1.487066,-0.12147 1.894531,-0.45703 0.431434,-0.35953 0.646485,-1.03025 0.646485,-1.86914 0,-0.81494 -0.215051,-1.41391 -0.646485,-1.77344 -0.455402,-0.35953 -0.863883,-0.45508 -1.894531,-0.45508 z"
         transform="matrix(0.26458333,0,0,0.26458333,42.841995,4.3614862)"
         id="path19370" /><path
         style="stroke:none;stroke-width:1.00157;stroke-linecap:round;paint-order:markers stroke fill;fill:#000000"
         d="m 110.36523,107.66602 c -2.92416,0 -4.81835,2.39673 -4.81835,6.08789 0,3.69115 1.89419,6.08789 4.81835,6.08789 2.87623,0 4.81836,-2.39691 4.81836,-5.99219 0,-3.78703 -1.87022,-6.18359 -4.81836,-6.18359 z"
         transform="matrix(0.26458333,0,0,0.26458333,42.841995,4.3614862)"
         id="path19368" /><path
         style="stroke:none;stroke-width:1.00157;stroke-linecap:round;paint-order:markers stroke fill;fill:#000000"
         d="m 83.4375,86.236328 -2.277344,6.832031 h 4.552735 z"
         transform="matrix(0.26458333,0,0,0.26458333,42.841995,4.3614862)"
         id="path19352" /><path
         style="stroke:none;stroke-width:1.00157;stroke-linecap:round;paint-order:markers stroke fill;fill:#000000"
         d="m 66.371094,84.894531 c -2.924164,0 -4.81836,2.396733 -4.81836,6.087891 0,3.691157 1.894196,6.08789 4.81836,6.08789 2.876226,0 4.818359,-2.396904 4.818359,-5.992187 0,-3.787032 -1.870227,-6.183594 -4.818359,-6.183594 z"
         transform="matrix(0.26458333,0,0,0.26458333,42.841995,4.3614862)"
         id="path19350" /></g></g></svg>
