<?xml version="1.0" encoding="UTF-8" standalone="no"?>
<!-- Created with Inkscape (http://www.inkscape.org/) -->

<svg
   width="43.764999mm"
   height="39.264999mm"
   viewBox="0 0 43.765 39.265"
   version="1.1"
   id="svg5"
   xml:space="preserve"
   sodipodi:docname="pokemon_invert.svg"
   inkscape:version="1.1.2 (0a00cf5339, 2022-02-04)"
   xmlns:inkscape="http://www.inkscape.org/namespaces/inkscape"
   xmlns:sodipodi="http://sodipodi.sourceforge.net/DTD/sodipodi-0.dtd"
   xmlns="http://www.w3.org/2000/svg"
   xmlns:svg="http://www.w3.org/2000/svg"><sodipodi:namedview
     id="namedview110"
     pagecolor="#ffffff"
     bordercolor="#666666"
     borderopacity="1.0"
     inkscape:pageshadow="2"
     inkscape:pageopacity="0.0"
     inkscape:pagecheckerboard="0"
     inkscape:document-units="mm"
     showgrid="false"
     fit-margin-top="0"
     fit-margin-left="0"
     fit-margin-right="0"
     fit-margin-bottom="0"
     inkscape:zoom="3.2378294"
     inkscape:cx="100.37589"
     inkscape:cy="35.826471"
     inkscape:window-width="1920"
     inkscape:window-height="1136"
     inkscape:window-x="0"
     inkscape:window-y="0"
     inkscape:window-maximized="1"
     inkscape:current-layer="g1860"
     inkscape:snap-page="true" /><defs
     id="defs2"><linearGradient
       gradientTransform="matrix(1,0,0,-1,-564,-925)"
       y2="-974.57031"
       x2="838.9209"
       y1="-974.57031"
       x1="573.17767"
       gradientUnits="userSpaceOnUse"
       id="SVGID_9_"><stop
         id="stop190"
         style="stop-color:#3C5AA6"
         offset="0" /><stop
         id="stop192"
         style="stop-color:#2B73B9"
         offset="0.9331" /><stop
         id="stop194"
         style="stop-color:#2A75BB"
         offset="1" /></linearGradient><linearGradient
       gradientTransform="matrix(0.15482491,0,0,-0.15482491,-44.821974,-135.27608)"
       y2="-982.76947"
       x2="655.63483"
       y1="-982.76947"
       x1="639.70612"
       gradientUnits="userSpaceOnUse"
       id="SVGID_8_"><stop
         id="stop177"
         style="stop-color:#3C5AA6"
         offset="0" /><stop
         id="stop179"
         style="stop-color:#2B73B9"
         offset="0.9331" /><stop
         id="stop181"
         style="stop-color:#2A75BB"
         offset="1" /></linearGradient><linearGradient
       gradientTransform="translate(-408,-677.5)"
       y2="750.61151"
       x2="448.0217"
       y1="726.20209"
       x1="437.49219"
       gradientUnits="userSpaceOnUse"
       id="SVGID_7_"><stop
         id="stop74"
         style="stop-color:#105FA1"
         offset="0" /><stop
         id="stop76"
         style="stop-color:#1D2C5E"
         offset="1" /></linearGradient><linearGradient
       gradientTransform="matrix(0.55553333,0,0,0.55553333,-187.8334,-381.40456)"
       y2="750.20251"
       x2="480.91931"
       y1="732.30957"
       x1="471.82129"
       gradientUnits="userSpaceOnUse"
       id="SVGID_6_"><stop
         id="stop65"
         style="stop-color:#105FA1"
         offset="0" /><stop
         id="stop67"
         style="stop-color:#1D2C5E"
         offset="1" /></linearGradient><linearGradient
       gradientTransform="translate(-408,-677.5)"
       y2="719.48871"
       x2="576.56763"
       y1="698.26068"
       x1="589.91107"
       gradientUnits="userSpaceOnUse"
       id="SVGID_5_"><stop
         id="stop52"
         style="stop-color:#125D9E"
         offset="0" /><stop
         id="stop54"
         style="stop-color:#1D2C5E"
         offset="1" /></linearGradient><linearGradient
       gradientTransform="translate(-408,-677.5)"
       y2="703.336"
       x2="631.74219"
       y1="714.83398"
       x1="632.34772"
       gradientUnits="userSpaceOnUse"
       id="SVGID_4_"><stop
         id="stop39"
         style="stop-color:#125D9E"
         offset="0" /><stop
         id="stop41"
         style="stop-color:#1D2C5E"
         offset="1" /></linearGradient><linearGradient
       gradientTransform="translate(-408,-677.5)"
       y2="704.54773"
       x2="491.9368"
       y1="717.28607"
       x1="493.45309"
       gradientUnits="userSpaceOnUse"
       id="SVGID_3_"><stop
         id="stop32"
         style="stop-color:#0070B6"
         offset="0" /><stop
         id="stop34"
         style="stop-color:#1D2C5E"
         offset="1" /></linearGradient><linearGradient
       gradientTransform="translate(-408,-677.5)"
       y2="680.94922"
       x2="561.64203"
       y1="694.57318"
       x1="548.92682"
       gradientUnits="userSpaceOnUse"
       id="SVGID_2_"><stop
         id="stop21"
         style="stop-color:#0070B6"
         offset="0" /><stop
         id="stop23"
         style="stop-color:#1D2C5E"
         offset="1" /></linearGradient><linearGradient
       gradientTransform="translate(-408,-677.5)"
       y2="714.04132"
       x2="416.7337"
       y1="732.71002"
       x1="426.75101"
       gradientUnits="userSpaceOnUse"
       id="SVGID_1_"><stop
         id="stop12"
         style="stop-color:#0070B6"
         offset="0" /><stop
         id="stop14"
         style="stop-color:#1D2C5E"
         offset="1" /></linearGradient><linearGradient
       gradientTransform="matrix(1,0,0,-1,-564,-925)"
       y2="-974.57031"
       x2="838.9209"
       y1="-974.57031"
       x1="573.17767"
       gradientUnits="userSpaceOnUse"
       id="linearGradient1009"><stop
         id="stop1003"
         style="stop-color:#3C5AA6"
         offset="0" /><stop
         id="stop1005"
         style="stop-color:#2B73B9"
         offset="0.9331" /><stop
         id="stop1007"
         style="stop-color:#2A75BB"
         offset="1" /></linearGradient><linearGradient
       gradientTransform="matrix(0.15482492,0,0,-0.15482492,-44.821978,-135.27609)"
       y2="-982.76947"
       x2="655.63483"
       y1="-982.76947"
       x1="639.70612"
       gradientUnits="userSpaceOnUse"
       id="SVGID_8_-5"><stop
         id="stop177-0"
         style="stop-color:#3C5AA6"
         offset="0" /><stop
         id="stop179-8"
         style="stop-color:#2B73B9"
         offset="0.9331" /><stop
         id="stop181-3"
         style="stop-color:#2A75BB"
         offset="1" /></linearGradient></defs><g
     id="layer1"
     transform="translate(-42.841995,-4.3614862)"><g
       id="g1860"><path
         id="path13071"
         style="fill:#000000;stroke-width:0.278696"
         d="M 48.191406 40.886719 C 46.938358 40.893771 45.61952 41.1589 44.302734 41.714844 C 39.415435 43.820267 36.378088 49.332482 37.683594 53.962891 C 39.031226 58.751881 44.07697 60.888977 49.121094 58.751953 C 51.093686 57.902878 52.768576 56.514382 53.96875 54.832031 C 55.230364 53.092337 55.984073 51.036549 56.050781 48.984375 C 56.077688 48.302658 56.021874 47.610242 55.880859 46.935547 C 55.839322 46.742443 55.79835 46.545264 55.736328 46.357422 C 55.243036 44.586713 54.186451 43.174151 52.800781 42.234375 C 51.503744 41.353107 49.908546 40.877055 48.191406 40.886719 z M 47.685547 42.992188 C 47.98046 42.992188 48.266584 43.020574 48.541016 43.070312 C 47.108529 43.195536 45.992188 44.273405 45.992188 45.580078 C 45.992188 46.981553 47.26221 48.105469 48.828125 48.105469 C 50.38992 48.105469 51.664062 46.982128 51.664062 45.580078 C 51.664062 45.344867 51.624093 45.123312 51.558594 44.923828 C 52.043685 45.586213 52.326172 46.390357 52.326172 47.244141 C 52.326172 49.709421 50.263714 51.644531 47.644531 51.644531 C 45.070393 51.644531 43.005859 49.710596 43.005859 47.244141 C 43.005859 44.932748 45.068674 42.992188 47.685547 42.992188 z "
         transform="matrix(0.26458333,0,0,0.26458333,42.841995,4.3614862)" /><path
         id="path13081"
         style="fill:#000000;stroke-width:0.278696"
         d="M 128.13281 38.835938 C 126.99346 38.820297 125.79233 39.025839 124.58398 39.476562 C 123.30599 39.968101 122.1567 40.695701 121.16602 41.583984 C 120.27773 42.392097 119.52657 43.328464 118.94141 44.326172 C 117.76758 46.367226 117.29599 48.698779 117.80859 50.880859 C 118.24805 52.697213 119.24554 54.14348 120.59961 55.123047 C 121.45103 55.72869 122.42876 56.145579 123.50195 56.357422 C 125.04152 56.663462 126.77046 56.527056 128.50781 55.865234 C 129.3879 55.540471 130.20548 55.090119 130.94922 54.560547 C 131.94459 53.851326 132.80758 52.985253 133.51562 52.021484 C 135.16873 49.760408 135.92162 46.954354 135.28906 44.333984 C 135.11176 43.576779 134.82022 42.882959 134.44336 42.253906 C 133.94656 41.457496 133.31618 40.772727 132.55664 40.234375 C 131.33052 39.352917 129.79802 38.858797 128.13281 38.835938 z M 127.03125 40.689453 C 127.11206 40.689188 127.1936 40.689829 127.27539 40.693359 C 127.57267 40.703866 127.85621 40.737373 128.12891 40.798828 C 126.69233 40.864951 125.52914 41.897623 125.47656 43.203125 C 125.41511 44.595824 126.64349 45.782193 128.20703 45.835938 C 129.77177 45.909098 131.08571 44.831738 131.14648 43.435547 C 131.15344 43.202063 131.12377 42.983501 131.06836 42.761719 C 131.52363 43.456309 131.77475 44.271636 131.74414 45.123047 C 131.63999 47.57957 129.50182 49.440782 126.88086 49.335938 C 124.30496 49.224158 122.32716 47.210412 122.42773 44.742188 C 122.51505 42.506405 124.52603 40.697666 127.03125 40.689453 z "
         transform="matrix(0.26458333,0,0,0.26458333,42.841995,4.3614862)" /><path
         id="rect888"
         style="stroke:none;stroke-width:1.00157;stroke-linecap:round;paint-order:markers stroke fill"
         d="M 0.5 0.5 L 0.5 147.90234 L 164.91016 147.90234 L 164.91016 0.5 L 0.5 0.5 z M 89.402344 14.5 L 95.357422 23.388672 L 86.816406 27.978516 C 90.731158 28.060441 94.265326 29.710203 96.703125 32.705078 L 97.537109 33.736328 L 98.685547 26.701172 L 108.74609 26.701172 L 109.00977 25.126953 L 118.56641 25.126953 L 120.73438 38.8125 C 121.61914 38.169988 122.59553 37.642244 123.64648 37.240234 C 126.77887 36.057031 130.10628 36.202457 132.79102 37.619141 C 132.80621 37.631537 132.82359 37.649196 132.85156 37.660156 L 133.00781 36.21875 L 130.8418 35.732422 L 130.74219 27.742188 L 145.11328 30.904297 L 146.18555 36.208984 L 147.34766 31.417969 L 159.57812 34.390625 L 147.83398 69.791016 L 138.8125 66.958984 L 138.74805 63.412109 L 130.09766 62.191406 L 130.61523 57.537109 C 130.20971 57.744258 129.78635 57.939067 129.35742 58.097656 C 127.54575 58.781161 125.67011 59.019657 123.89062 58.818359 L 124.58008 63.191406 L 111.58203 60.898438 L 110.91211 55.107422 L 109.08203 58.634766 L 106.08789 53.103516 L 105.45898 57.228516 L 93.994141 55.425781 L 94.886719 49.958984 C 93.106062 51.025741 91.101595 51.803285 88.759766 52.369141 C 87.884359 52.58389 87.013324 52.717667 86.160156 52.789062 L 86.160156 62.964844 L 64.898438 52.455078 L 64.914062 61.580078 L 54.738281 63.078125 L 54.298828 58.361328 C 53.096315 59.536924 51.677778 60.524134 50.082031 61.201172 C 46.900489 62.550648 43.46132 62.546065 40.642578 61.191406 C 38.032743 59.934475 36.152644 57.666909 35.345703 54.794922 C 34.955958 53.423294 34.864498 51.989735 35.037109 50.574219 C 34.272299 51.303921 33.444334 52.001064 32.556641 52.658203 L 35.642578 64.505859 L 36.314453 67.097656 L 33.767578 67.90625 L 27.957031 69.767578 L 25.558594 70.541016 L 24.523438 68.236328 L 13.783203 44.267578 L 13.457031 44.417969 L 11.121094 45.566406 C 11.112318 45.567578 9.7890625 43.328125 9.7890625 43.328125 L 5.4667969 36.023438 L 4.0742188 33.671875 L 6.3808594 32.210938 C 8.2054036 31.048801 10.227863 29.997411 12.396484 29.072266 C 18.295533 26.559008 24.289794 25.664628 29.28125 26.537109 C 31.312357 26.767079 33.254301 27.442449 34.882812 28.527344 C 37.205918 29.823484 39.099077 31.877501 40.175781 34.363281 C 41.087468 36.466951 41.216473 38.82601 40.675781 41.21875 C 41.471606 40.641775 42.335402 40.145951 43.261719 39.742188 C 46.387672 38.421481 49.758389 38.391116 52.5625 39.650391 L 52.199219 35.722656 L 49.744141 36.359375 L 49.375 28.609375 L 63.800781 24 L 63.675781 29.941406 L 66.902344 23.759766 L 76.128906 31.945312 C 77.346632 30.800142 78.815696 29.85163 80.498047 29.164062 L 78.640625 26.900391 L 89.402344 14.5 z "
         transform="matrix(0.26458333,0,0,0.26458333,42.841995,4.3614862)" /><path
         style="fill:#000000;stroke-width:0.0737383"
         d="m 81.507563,21.9545 -1.319728,-0.3931 -0.115035,-4.865528 -0.663734,3.753421 -1.439717,-0.229761 0.103114,-1.080678 c 0.940096,-0.794406 1.438478,-2.047559 1.165367,-3.1832 -0.11999,-0.502871 -0.378547,-0.940716 -0.743005,-1.273589 l 0.121538,-1.274519 -0.544365,-0.144916 0.03638,-0.680456 2.48045,0.498537 0.834042,3.955157 0.855407,-3.545955 1.887006,0.416943 z"
         id="path13083" /><path
         style="fill:#000000;stroke-width:0.0737383"
         d="m 73.041737,19.888672 -0.505658,-3.349637 -0.715137,1.847835 -1.070769,-2.309523 h -0.01208 l -0.423136,2.6746 -1.784667,-0.310579 0.250971,-1.492512 c 0.06735,-0.06332 0.133614,-0.126801 0.198795,-0.193841 l 0.578426,-0.595611 -0.562169,-0.503491 0.597314,-3.554315 h 1.800614 l 0.450695,2.460477 0.505039,-2.85141 h 1.287989 l 0.534455,3.473961 c -0.680146,0.774744 -1.010542,1.816251 -0.783259,2.769044 0.175726,0.738669 0.629673,1.333507 1.280402,1.680934 0.06549,0.03298 0.133304,0.06565 0.203285,0.09382 l 0.06812,0.450385 z"
         id="path13079" /><path
         id="path13077"
         style="fill:#000000;stroke-width:0.278696"
         d="M 86.386719 30.710938 C 85.441499 30.722183 84.459722 30.844682 83.451172 31.087891 C 81.400752 31.580601 79.596181 32.497367 78.183594 33.757812 C 77.60779 34.266907 77.095915 34.832852 76.664062 35.453125 C 75.164282 37.57903 74.554846 40.292288 75.267578 43.328125 C 75.379358 43.799768 75.528779 44.241199 75.720703 44.677734 C 77.261443 48.282349 81.320256 50.505034 86.160156 50.029297 C 86.799157 49.973133 87.452636 49.861715 88.119141 49.708984 C 91.168433 48.972264 93.477283 47.879821 95.501953 46.205078 C 95.99232 45.793707 96.47639 45.344096 96.9375 44.867188 L 95.873047 43.90625 L 92.363281 40.748047 C 91.331637 41.958168 90.16091 43.067859 88.068359 43.578125 C 87.36909 43.745482 86.421871 43.903381 85.826172 43.791016 L 94.611328 34.439453 C 92.666569 32.053086 89.762502 30.670774 86.386719 30.710938 z M 84.873047 34.71875 C 86.117919 34.692884 87.37433 35.12812 88.365234 36.037109 C 88.486368 36.147131 88.604256 36.268924 88.720703 36.390625 L 82.121094 43.863281 C 81.939688 43.73395 81.758587 43.602339 81.591797 43.441406 C 79.543134 41.572388 79.396229 38.390078 81.273438 36.349609 C 82.235641 35.295684 83.54786 34.746285 84.873047 34.71875 z "
         transform="matrix(0.26458333,0,0,0.26458333,42.841995,4.3614862)" /><path
         style="fill:#000000;stroke-width:0.0737383"
         d="m 62.035234,15.855328 -0.776447,-0.299586 0.723806,-0.703525 c -0.03096,0.322965 -0.01502,0.660638 0.05264,1.003111 z"
         id="path13075" /><path
         style="fill:#000000;stroke-width:0.0737383"
         d="m 64.933711,19.900283 -5.582212,-2.791957 0.0099,2.925262 -1.444052,0.196937 -0.100636,-1.205776 c 0.445895,-0.764526 0.608926,-1.665452 0.376224,-2.491598 -0.12773,-0.454101 -0.363684,-0.848285 -0.684326,-1.164128 l -0.207156,-2.458465 -0.648406,0.16814 -0.02864,-0.621622 2.318968,-0.690519 0.142129,2.391735 1.708338,-2.400251 1.670096,1.590517 -2.335534,2.460477 2.194179,0.867949 c 0.245088,0.464474 0.61899,0.859123 1.088109,1.149884 0.453483,0.279924 0.973075,0.445431 1.522703,0.499775 z"
         id="path13073" /><path
         id="path13069"
         style="fill:#000000;stroke-width:0.278696"
         d="M 25.380859 29.035156 C 21.797099 29.028134 17.724314 29.87776 13.505859 31.671875 C 11.50167 32.51861 9.6164822 33.490705 7.8984375 34.587891 L 12.21875 41.886719 C 13.319447 41.347195 14.51902 40.774734 15.167969 40.433594 L 27.097656 67.078125 L 32.912109 65.220703 L 29.320312 51.4375 C 36.190738 47.197395 39.661904 40.288195 37.583984 35.486328 C 36.731984 33.514322 35.253895 31.964777 33.322266 30.876953 C 31.914358 29.942446 30.307567 29.495091 28.789062 29.324219 C 27.716017 29.134625 26.575446 29.037497 25.380859 29.035156 z M 28.453125 37.232422 C 30.768066 37.232986 32.626612 38.574926 32.988281 40.515625 C 33.720909 44.425697 30.960436 46.547056 28.214844 48.3125 L 27.539062 46.138672 L 26.054688 41.363281 L 25.111328 38.132812 C 26.25496 37.509063 27.400879 37.232165 28.453125 37.232422 z "
         transform="matrix(0.26458333,0,0,0.26458333,42.841995,4.3614862)" /><path
         style="fill:#000000;stroke-width:0.0737383"
         d="m 66.374667,9.2424462 0.833267,1.1319248 -2.382291,1.181005 -0.164579,-0.250043 z"
         id="path13067" /><path
         style="fill:#000000;stroke-width:0.0737383"
         d="m 68.390177,14.066171 0.157767,-0.167675 -0.19059,1.180849 -0.497142,-0.447753 z"
         id="path13065" /><path
         style="fill:#000000;stroke-width:0.0737383"
         d="m 50.608381,16.229849 c -0.105745,-0.345104 -0.337673,-1.090277 -0.337673,-1.090277 0.0011,0.0034 -0.04567,-0.159469 -0.1011,-0.345879 0.205298,-0.03669 0.402544,-0.02183 0.564801,0.0562 0.09073,0.0432 0.250197,0.143987 0.285033,0.335041 0.0802,0.429484 -0.06456,0.736038 -0.411061,1.044913 z"
         id="path11132" /><path
         style="fill:#000000;stroke-width:0.0737383"
         d="m 64.573434,15.28712 c -0.170772,-0.31352 -0.136246,-0.711575 0.11906,-0.990569 0.245552,-0.267538 0.621777,-0.343712 0.942574,-0.220007 z"
         id="path15941" /></g></g></svg>
