<?xml version="1.0" encoding="UTF-8" standalone="no"?>
<!-- Created with Inkscape (http://www.inkscape.org/) -->

<svg
   width="43.764999mm"
   height="39.264999mm"
   viewBox="0 0 43.765 39.265"
   version="1.1"
   id="svg5"
   xml:space="preserve"
   sodipodi:docname="pokemon_walnut.svg"
   inkscape:version="1.1.2 (0a00cf5339, 2022-02-04)"
   xmlns:inkscape="http://www.inkscape.org/namespaces/inkscape"
   xmlns:sodipodi="http://sodipodi.sourceforge.net/DTD/sodipodi-0.dtd"
   xmlns="http://www.w3.org/2000/svg"
   xmlns:svg="http://www.w3.org/2000/svg"><sodipodi:namedview
     id="namedview110"
     pagecolor="#ffffff"
     bordercolor="#666666"
     borderopacity="1.0"
     inkscape:pageshadow="2"
     inkscape:pageopacity="0.0"
     inkscape:pagecheckerboard="0"
     inkscape:document-units="mm"
     showgrid="false"
     fit-margin-top="0"
     fit-margin-left="0"
     fit-margin-right="0"
     fit-margin-bottom="0"
     inkscape:zoom="3.2378294"
     inkscape:cx="70.417546"
     inkscape:cy="35.826471"
     inkscape:window-width="1920"
     inkscape:window-height="1136"
     inkscape:window-x="0"
     inkscape:window-y="0"
     inkscape:window-maximized="1"
     inkscape:current-layer="g1860"
     inkscape:snap-page="true" /><defs
     id="defs2"><linearGradient
       gradientTransform="matrix(1,0,0,-1,-564,-925)"
       y2="-974.57031"
       x2="838.9209"
       y1="-974.57031"
       x1="573.17767"
       gradientUnits="userSpaceOnUse"
       id="SVGID_9_"><stop
         id="stop190"
         style="stop-color:#3C5AA6"
         offset="0" /><stop
         id="stop192"
         style="stop-color:#2B73B9"
         offset="0.9331" /><stop
         id="stop194"
         style="stop-color:#2A75BB"
         offset="1" /></linearGradient><linearGradient
       gradientTransform="matrix(0.15482491,0,0,-0.15482491,-44.821974,-135.27608)"
       y2="-982.76947"
       x2="655.63483"
       y1="-982.76947"
       x1="639.70612"
       gradientUnits="userSpaceOnUse"
       id="SVGID_8_"><stop
         id="stop177"
         style="stop-color:#3C5AA6"
         offset="0" /><stop
         id="stop179"
         style="stop-color:#2B73B9"
         offset="0.9331" /><stop
         id="stop181"
         style="stop-color:#2A75BB"
         offset="1" /></linearGradient><linearGradient
       gradientTransform="translate(-408,-677.5)"
       y2="750.61151"
       x2="448.0217"
       y1="726.20209"
       x1="437.49219"
       gradientUnits="userSpaceOnUse"
       id="SVGID_7_"><stop
         id="stop74"
         style="stop-color:#105FA1"
         offset="0" /><stop
         id="stop76"
         style="stop-color:#1D2C5E"
         offset="1" /></linearGradient><linearGradient
       gradientTransform="matrix(0.55553333,0,0,0.55553333,-187.8334,-381.40456)"
       y2="750.20251"
       x2="480.91931"
       y1="732.30957"
       x1="471.82129"
       gradientUnits="userSpaceOnUse"
       id="SVGID_6_"><stop
         id="stop65"
         style="stop-color:#105FA1"
         offset="0" /><stop
         id="stop67"
         style="stop-color:#1D2C5E"
         offset="1" /></linearGradient><linearGradient
       gradientTransform="translate(-408,-677.5)"
       y2="719.48871"
       x2="576.56763"
       y1="698.26068"
       x1="589.91107"
       gradientUnits="userSpaceOnUse"
       id="SVGID_5_"><stop
         id="stop52"
         style="stop-color:#125D9E"
         offset="0" /><stop
         id="stop54"
         style="stop-color:#1D2C5E"
         offset="1" /></linearGradient><linearGradient
       gradientTransform="translate(-408,-677.5)"
       y2="703.336"
       x2="631.74219"
       y1="714.83398"
       x1="632.34772"
       gradientUnits="userSpaceOnUse"
       id="SVGID_4_"><stop
         id="stop39"
         style="stop-color:#125D9E"
         offset="0" /><stop
         id="stop41"
         style="stop-color:#1D2C5E"
         offset="1" /></linearGradient><linearGradient
       gradientTransform="translate(-408,-677.5)"
       y2="704.54773"
       x2="491.9368"
       y1="717.28607"
       x1="493.45309"
       gradientUnits="userSpaceOnUse"
       id="SVGID_3_"><stop
         id="stop32"
         style="stop-color:#0070B6"
         offset="0" /><stop
         id="stop34"
         style="stop-color:#1D2C5E"
         offset="1" /></linearGradient><linearGradient
       gradientTransform="translate(-408,-677.5)"
       y2="680.94922"
       x2="561.64203"
       y1="694.57318"
       x1="548.92682"
       gradientUnits="userSpaceOnUse"
       id="SVGID_2_"><stop
         id="stop21"
         style="stop-color:#0070B6"
         offset="0" /><stop
         id="stop23"
         style="stop-color:#1D2C5E"
         offset="1" /></linearGradient><linearGradient
       gradientTransform="translate(-408,-677.5)"
       y2="714.04132"
       x2="416.7337"
       y1="732.71002"
       x1="426.75101"
       gradientUnits="userSpaceOnUse"
       id="SVGID_1_"><stop
         id="stop12"
         style="stop-color:#0070B6"
         offset="0" /><stop
         id="stop14"
         style="stop-color:#1D2C5E"
         offset="1" /></linearGradient><linearGradient
       gradientTransform="matrix(1,0,0,-1,-564,-925)"
       y2="-974.57031"
       x2="838.9209"
       y1="-974.57031"
       x1="573.17767"
       gradientUnits="userSpaceOnUse"
       id="linearGradient1009"><stop
         id="stop1003"
         style="stop-color:#3C5AA6"
         offset="0" /><stop
         id="stop1005"
         style="stop-color:#2B73B9"
         offset="0.9331" /><stop
         id="stop1007"
         style="stop-color:#2A75BB"
         offset="1" /></linearGradient><linearGradient
       gradientTransform="matrix(0.15482492,0,0,-0.15482492,-44.821978,-135.27609)"
       y2="-982.76947"
       x2="655.63483"
       y1="-982.76947"
       x1="639.70612"
       gradientUnits="userSpaceOnUse"
       id="SVGID_8_-5"><stop
         id="stop177-0"
         style="stop-color:#3C5AA6"
         offset="0" /><stop
         id="stop179-8"
         style="stop-color:#2B73B9"
         offset="0.9331" /><stop
         id="stop181-3"
         style="stop-color:#2A75BB"
         offset="1" /></linearGradient></defs><g
     id="layer1"
     transform="translate(-42.841995,-4.3614862)"><g
       id="g1860"><path
         id="rect888"
         style="stroke:none;stroke-width:1.00157;stroke-linecap:round;paint-order:markers stroke fill"
         d="M 0.5 0.5 L 0.5 147.90234 L 164.91016 147.90234 L 164.91016 0.5 L 0.5 0.5 z M 89.402344 14.5 L 95.357422 23.388672 L 86.816406 27.978516 C 90.731158 28.060446 94.265326 29.710203 96.703125 32.705078 L 97.537109 33.736328 L 98.685547 26.701172 L 108.74609 26.701172 L 109.00977 25.126953 L 118.56641 25.126953 L 120.73438 38.8125 C 121.61899 38.169988 122.59553 37.642244 123.64648 37.240234 C 126.77887 36.057031 130.10628 36.202457 132.79102 37.619141 C 132.80622 37.631541 132.82366 37.649196 132.85156 37.660156 L 133.00781 36.21875 L 130.8418 35.732422 L 130.74219 27.742188 L 145.11328 30.904297 L 146.18555 36.208984 L 147.34766 31.417969 L 159.57812 34.390625 L 147.83398 69.791016 L 138.8125 66.958984 L 138.74805 63.412109 L 130.09766 62.191406 L 130.61523 57.537109 C 130.20971 57.744258 129.78635 57.939067 129.35742 58.097656 C 127.54575 58.781161 125.67011 59.019657 123.89062 58.818359 L 124.58008 63.191406 L 111.58203 60.898438 L 110.91211 55.107422 L 109.08203 58.634766 L 106.08789 53.103516 L 105.45898 57.228516 L 93.994141 55.425781 L 94.886719 49.958984 C 93.106062 51.025741 91.101595 51.803285 88.759766 52.369141 C 87.884359 52.58389 87.013324 52.717682 86.160156 52.789062 L 86.160156 62.964844 L 64.898438 52.455078 L 64.914062 61.580078 L 54.738281 63.078125 L 54.298828 58.361328 C 53.096315 59.536924 51.677778 60.524134 50.082031 61.201172 C 46.900489 62.550648 43.46132 62.546099 40.642578 61.191406 C 38.032743 59.934475 36.152644 57.666909 35.345703 54.794922 C 34.955958 53.423294 34.864498 51.989735 35.037109 50.574219 C 34.272299 51.303921 33.444334 52.001064 32.556641 52.658203 L 35.642578 64.505859 L 36.314453 67.097656 L 33.767578 67.90625 L 27.957031 69.767578 L 25.558594 70.541016 L 24.523438 68.236328 L 13.783203 44.267578 L 13.457031 44.417969 L 11.121094 45.566406 C 11.112294 45.567606 9.7890625 43.328125 9.7890625 43.328125 L 5.4667969 36.023438 L 4.0742188 33.671875 L 6.3808594 32.210938 C 8.2054036 31.048801 10.227863 29.997411 12.396484 29.072266 C 18.295533 26.559008 24.289794 25.664628 29.28125 26.537109 C 31.312357 26.767079 33.254316 27.442449 34.882812 28.527344 C 37.205918 29.823484 39.099077 31.877501 40.175781 34.363281 C 41.087468 36.466951 41.216473 38.82601 40.675781 41.21875 C 41.471606 40.641775 42.335402 40.145936 43.261719 39.742188 C 46.387672 38.421481 49.758389 38.391119 52.5625 39.650391 L 52.199219 35.722656 L 49.744141 36.359375 L 49.375 28.609375 L 63.800781 24 L 63.675781 29.941406 L 66.902344 23.759766 L 76.128906 31.945312 C 77.346632 30.800157 78.815696 29.85163 80.498047 29.164062 L 78.640625 26.900391 L 89.402344 14.5 z M 32.287109 82.115234 L 36.099609 82.115234 L 38.806641 95.201172 L 41.515625 82.115234 L 45.0625 82.115234 L 47.890625 95.224609 L 50.503906 82.115234 L 54.314453 82.115234 L 49.472656 99.587891 L 46.238281 99.587891 L 43.3125 85.949219 L 40.460938 99.587891 L 37.224609 99.587891 L 32.287109 82.115234 z M 60.019531 82.115234 L 63.998047 82.115234 L 70.039062 99.587891 L 66.347656 99.587891 L 65.197266 96.064453 L 58.652344 96.064453 L 57.478516 99.587891 L 53.810547 99.587891 L 60.019531 82.115234 z M 72.410156 82.115234 L 76.005859 82.115234 L 76.005859 96.591797 L 84.371094 96.591797 L 84.371094 99.587891 L 72.410156 99.587891 L 72.410156 82.115234 z M 86.767578 82.115234 L 90.458984 82.115234 L 97.386719 94.003906 L 97.386719 82.115234 L 100.98242 82.115234 L 100.98242 99.587891 L 97.386719 99.587891 L 90.363281 87.507812 L 90.363281 99.587891 L 86.767578 99.587891 L 86.767578 82.115234 z M 104.26562 82.115234 L 107.86133 82.115234 L 107.86133 93.955078 C 107.86133 96.064311 108.93836 97.070313 111.19141 97.070312 C 113.44445 97.070312 114.52344 96.064311 114.52344 93.955078 L 114.52344 82.115234 L 118.11914 82.115234 L 118.11914 93.955078 C 118.11914 95.9205 117.59243 97.310618 116.41797 98.365234 C 115.14764 99.515725 113.30064 100.13867 111.19141 100.13867 C 109.08217 100.13867 107.23713 99.515725 105.9668 98.365234 C 104.79234 97.310618 104.26562 95.9205 104.26562 93.955078 L 104.26562 82.115234 z M 120.01172 82.115234 L 134.00977 82.115234 L 134.00977 85.111328 L 128.9043 85.111328 L 128.9043 99.587891 L 125.30859 99.587891 L 125.30859 85.111328 L 120.01172 85.111328 L 120.01172 82.115234 z M 86.037109 104.59766 C 90.447323 104.59766 92.86861 106.58583 92.892578 110.20508 L 89.537109 110.20508 C 89.417267 108.43141 88.146153 107.47266 85.869141 107.47266 C 83.999593 107.47266 82.849609 108.31259 82.849609 109.63086 C 82.849609 110.90119 83.591615 111.40486 86.15625 111.9082 L 88.888672 112.43555 C 92.124427 113.05873 93.515625 114.49557 93.515625 117.25195 C 93.515625 120.82327 90.855698 122.9082 86.349609 122.9082 C 81.891458 122.9082 79.325092 120.87191 79.109375 117.13281 L 82.609375 117.13281 C 82.729218 119.00236 84.096223 120.0332 86.541016 120.0332 C 88.722154 120.0332 90.064453 119.14568 90.064453 117.68359 C 90.064453 116.26945 89.176152 115.59798 86.779297 115.14258 L 84.335938 114.66406 C 80.788591 113.99294 79.421875 112.67524 79.421875 109.9668 C 79.421875 106.56326 81.842612 104.59766 86.037109 104.59766 z M 110.3418 104.59766 C 112.88246 104.59766 114.8 105.36375 116.33398 107.01758 C 117.89194 108.67141 118.77734 111.14063 118.77734 113.87305 C 118.77734 116.34181 117.844 118.88239 116.33398 120.48828 C 114.82397 122.11814 112.85796 122.9082 110.36523 122.9082 C 107.8725 122.9082 105.9065 122.11814 104.39648 120.48828 C 102.83853 118.83445 101.95312 116.36648 101.95312 113.75391 C 101.95312 111.14133 102.83853 108.69538 104.39648 107.01758 C 105.88253 105.41168 107.897 104.59766 110.3418 104.59766 z M 29.927734 104.88477 L 33.546875 104.88477 L 37.429688 118.04297 L 41.240234 104.88477 L 44.859375 104.88477 L 38.867188 122.35742 L 35.822266 122.35742 L 29.927734 104.88477 z M 46.945312 104.88477 L 59.576172 104.88477 L 59.576172 107.88086 L 50.539062 107.88086 L 50.539062 111.83594 L 58.904297 111.83594 L 58.904297 114.83203 L 50.539062 114.83203 L 50.539062 119.36133 L 60.007812 119.36133 L 60.007812 122.35742 L 46.945312 122.35742 L 46.945312 104.88477 z M 62.955078 104.88477 L 72.326172 104.88477 C 73.812222 104.88477 74.916069 105.26905 75.707031 106.08398 C 76.545931 106.94685 77.025391 108.21725 77.025391 109.60742 C 77.025391 111.74062 76.041593 113.15488 74.076172 113.92188 C 76.305247 114.88059 76.402173 115.1202 76.498047 120.27344 C 76.498047 121.04043 76.714348 121.39935 77.265625 121.71094 L 77.265625 122.35742 L 73.40625 122.35742 C 72.974816 121.51852 72.878906 121.01516 72.878906 119.36133 C 72.878906 119.09767 72.878373 118.66634 72.902344 118.21094 L 72.902344 117.49219 C 72.902344 116.05407 72.231784 115.43164 70.673828 115.43164 L 66.550781 115.43164 L 66.550781 122.35742 L 62.955078 122.35742 L 62.955078 104.88477 z M 95.839844 104.88477 L 99.435547 104.88477 L 99.435547 122.35742 L 95.839844 122.35742 L 95.839844 104.88477 z M 121.27148 104.88477 L 124.96289 104.88477 L 131.88867 116.77344 L 131.88867 104.88477 L 135.48438 104.88477 L 135.48438 122.35742 L 131.88867 122.35742 L 124.86523 110.27734 L 124.86523 122.35742 L 121.27148 122.35742 L 121.27148 104.88477 z "
         transform="matrix(0.26458333,0,0,0.26458333,42.841995,4.3614862)" /><path
         id="path13071"
         style="fill:#000000;stroke-width:0.0737383"
         d="m 55.592638,15.17943 c -0.331536,0.0019 -0.680478,0.07202 -1.028878,0.219109 -1.293098,0.55706 -2.096729,2.0155 -1.751314,3.240629 0.356561,1.267087 1.69158,1.832527 3.026172,1.267106 0.521915,-0.224651 0.965063,-0.592024 1.282609,-1.037146 0.333802,-0.460294 0.53322,-1.004221 0.55087,-1.547192 0.0071,-0.180371 -0.0076,-0.363573 -0.04496,-0.542086 -0.01099,-0.05109 -0.02183,-0.103263 -0.03824,-0.152962 -0.130517,-0.4685 -0.410071,-0.842241 -0.776697,-1.09089 -0.343174,-0.233169 -0.765237,-0.359124 -1.219562,-0.356568 z m -0.133842,0.557073 c 0.07803,0 0.153733,0.0075 0.226343,0.02067 -0.379013,0.03313 -0.674378,0.318318 -0.674378,0.664042 0,0.370807 0.336027,0.668177 0.750342,0.668177 0.413225,0 0.750342,-0.297218 0.750342,-0.668177 0,-0.06223 -0.01058,-0.120852 -0.02791,-0.173632 0.128347,0.175256 0.203089,0.388019 0.203089,0.613916 0,0.652272 -0.545692,1.16427 -1.238684,1.16427 -0.681074,0 -1.227316,-0.511687 -1.227316,-1.16427 0,-0.611556 0.545787,-1.124996 1.238168,-1.124996 z" /><path
         id="path13081"
         style="fill:#000000;stroke-width:0.0737383"
         d="m 76.743801,14.636828 c -0.301453,-0.0041 -0.619252,0.05025 -0.938962,0.169498 -0.338135,0.130053 -0.642218,0.322564 -0.904335,0.557589 -0.235027,0.213814 -0.433771,0.461561 -0.588595,0.725538 -0.310576,0.540029 -0.43535,1.156919 -0.299725,1.734261 0.116274,0.480577 0.380193,0.863235 0.738457,1.122412 0.225272,0.160243 0.483963,0.270545 0.767911,0.326595 0.407345,0.08097 0.864793,0.04488 1.324467,-0.130225 0.232857,-0.08593 0.449175,-0.205082 0.645957,-0.345198 0.263358,-0.187648 0.491691,-0.416797 0.679026,-0.671794 0.437386,-0.598243 0.636588,-1.340678 0.469223,-2.033984 -0.04691,-0.200344 -0.124047,-0.383917 -0.223758,-0.550354 -0.131445,-0.210717 -0.298233,-0.391896 -0.499195,-0.534335 -0.324411,-0.233219 -0.729885,-0.363955 -1.170471,-0.370003 z m -0.291455,0.490409 c 0.02138,-7e-5 0.04295,1e-4 0.0646,0.001 0.07865,0.0028 0.153675,0.01165 0.225827,0.02791 -0.380095,0.0175 -0.687856,0.290723 -0.701768,0.636137 -0.01626,0.368485 0.30875,0.682379 0.722437,0.696599 0.414004,0.01936 0.761651,-0.265695 0.777729,-0.635104 0.0018,-0.06178 -0.006,-0.119604 -0.02067,-0.178283 0.120457,0.183776 0.186899,0.399498 0.1788,0.624768 -0.02756,0.649955 -0.59328,1.1424 -1.286743,1.11466 -0.68154,-0.02957 -1.204833,-0.562378 -1.178224,-1.215429 0.0231,-0.591551 0.555176,-1.070114 1.218015,-1.072287 z" /><path
         style="stroke:none;stroke-width:1.00157;stroke-linecap:round;paint-order:markers stroke fill;fill:#000000"
         d="m 66.550781,107.88086 v 4.55469 h 4.337891 c 1.030648,0 1.487066,-0.12147 1.894531,-0.45703 0.431434,-0.35953 0.646485,-1.03025 0.646485,-1.86914 0,-0.81494 -0.215051,-1.41391 -0.646485,-1.77344 -0.455402,-0.35953 -0.863883,-0.45508 -1.894531,-0.45508 z"
         transform="matrix(0.26458333,0,0,0.26458333,42.841995,4.3614862)"
         id="path906" /><path
         style="stroke:none;stroke-width:1.00157;stroke-linecap:round;paint-order:markers stroke fill;fill:#000000"
         d="m 110.36523,107.66602 c -2.92416,0 -4.81835,2.39673 -4.81835,6.08789 0,3.69115 1.89419,6.08789 4.81835,6.08789 2.87623,0 4.81836,-2.39691 4.81836,-5.99219 0,-3.78703 -1.87022,-6.18359 -4.81836,-6.18359 z"
         transform="matrix(0.26458333,0,0,0.26458333,42.841995,4.3614862)"
         id="path904" /><path
         style="stroke:none;stroke-width:1.00157;stroke-linecap:round;paint-order:markers stroke fill;fill:#000000"
         d="m 61.9375,86.236328 -2.277344,6.832031 h 4.552735 z"
         transform="matrix(0.26458333,0,0,0.26458333,42.841995,4.3614862)"
         id="path888" /><path
         style="fill:#000000;stroke-width:0.0737383"
         d="m 81.507563,21.9545 -1.319728,-0.3931 -0.115035,-4.865528 -0.663734,3.753421 -1.439717,-0.229761 0.103114,-1.080678 c 0.940096,-0.794406 1.438478,-2.047559 1.165367,-3.1832 -0.11999,-0.502871 -0.378547,-0.940716 -0.743005,-1.273589 l 0.121538,-1.274519 -0.544365,-0.144916 0.03638,-0.680456 2.48045,0.498537 0.834042,3.955157 0.855407,-3.545955 1.887006,0.416943 z"
         id="path13083" /><path
         style="fill:#000000;stroke-width:0.0737383"
         d="m 73.041737,19.888672 -0.505658,-3.349637 -0.715137,1.847835 -1.070769,-2.309523 h -0.01208 l -0.423136,2.6746 -1.784667,-0.310579 0.250971,-1.492512 c 0.06735,-0.06332 0.133614,-0.126801 0.198795,-0.193841 l 0.578426,-0.595611 -0.562169,-0.503491 0.597314,-3.554315 h 1.800614 l 0.450695,2.460477 0.505039,-2.85141 h 1.287989 l 0.534455,3.473961 c -0.680146,0.774744 -1.010542,1.816251 -0.783259,2.769044 0.175726,0.738669 0.629673,1.333507 1.280402,1.680934 0.06549,0.03298 0.133304,0.06565 0.203285,0.09382 l 0.06812,0.450385 z"
         id="path13079" /><path
         id="path13077"
         style="fill:#000000;stroke-width:0.0737383"
         d="m 65.698481,12.487088 c -0.25009,0.003 -0.509852,0.03539 -0.776697,0.09974 -0.542507,0.130363 -1.019966,0.372924 -1.393713,0.706417 -0.152348,0.134698 -0.287782,0.284438 -0.402043,0.448552 -0.396817,0.562479 -0.558064,1.280361 -0.369487,2.083594 0.02958,0.124789 0.06911,0.241584 0.11989,0.357084 0.407654,0.953721 1.481548,1.541807 2.762105,1.415935 0.169069,-0.01486 0.341969,-0.04434 0.518315,-0.08475 0.806792,-0.194924 1.417675,-0.483966 1.953369,-0.927075 0.129743,-0.108842 0.25782,-0.227802 0.379822,-0.353983 L 68.208405,15.978348 67.279779,15.14274 c -0.272955,0.320178 -0.58271,0.613784 -1.136364,0.748792 -0.185015,0.04428 -0.435634,0.08606 -0.593246,0.05633 l 2.324406,-2.474271 c -0.514551,-0.631393 -1.282918,-0.997129 -2.176094,-0.986503 z m -0.400493,1.060401 c 0.329373,-0.0068 0.661798,0.108312 0.923975,0.348815 0.03205,0.02911 0.06324,0.06133 0.09405,0.09353 l -1.746146,1.977141 c -0.048,-0.03422 -0.09591,-0.06904 -0.140044,-0.111621 -0.542042,-0.494511 -0.58091,-1.336498 -0.08423,-1.876372 0.254583,-0.278851 0.601774,-0.424213 0.952396,-0.431498 z" /><path
         style="fill:#000000;stroke-width:0.0737383"
         d="m 62.035234,15.855328 -0.776447,-0.299586 0.723806,-0.703525 c -0.03096,0.322965 -0.01502,0.660638 0.05264,1.003111 z"
         id="path13075" /><path
         style="fill:#000000;stroke-width:0.0737383"
         d="m 64.933711,19.900283 -5.582212,-2.791957 0.0099,2.925262 -1.444052,0.196937 -0.100636,-1.205776 c 0.445895,-0.764526 0.608926,-1.665452 0.376224,-2.491598 -0.12773,-0.454101 -0.363684,-0.848285 -0.684326,-1.164128 l -0.207156,-2.458465 -0.648406,0.16814 -0.02864,-0.621622 2.318968,-0.690519 0.142129,2.391735 1.708338,-2.400251 1.670096,1.590517 -2.335534,2.460477 2.194179,0.867949 c 0.245088,0.464474 0.61899,0.859123 1.088109,1.149884 0.453483,0.279924 0.973075,0.445431 1.522703,0.499775 z"
         id="path13073" /><path
         id="path13069"
         style="fill:#000000;stroke-width:0.0737383"
         d="m 49.557347,12.043704 c -0.948203,-0.0019 -2.025794,0.222939 -3.141927,0.697632 -0.530275,0.224032 -1.029064,0.481232 -1.48363,0.77153 l 1.143083,1.931148 c 0.291226,-0.142749 0.608613,-0.294213 0.780314,-0.384473 l 3.156396,7.049699 1.538407,-0.491443 -0.950329,-3.646805 c 1.8178,-1.121862 2.736213,-2.949921 2.18643,-4.220415 -0.225425,-0.52176 -0.616503,-0.931744 -1.12758,-1.219564 -0.372509,-0.247255 -0.797639,-0.365617 -1.19941,-0.410827 -0.28391,-0.05016 -0.585686,-0.07586 -0.901754,-0.07648 z m 0.812871,2.16886 c 0.612494,1.5e-4 1.104235,0.355205 1.199926,0.868681 0.193841,1.03454 -0.536534,1.595817 -1.262972,2.062924 l -0.1788,-0.575159 -0.392741,-1.263489 -0.249597,-0.854728 c 0.302586,-0.165034 0.605777,-0.238297 0.884184,-0.238229 z" /><path
         style="fill:#000000;stroke-width:0.0737383"
         d="m 66.374667,9.2424458 0.833267,1.1319252 -2.382291,1.181005 -0.164579,-0.250043 z"
         id="path13067" /><path
         style="fill:#000000;stroke-width:0.0737383"
         d="m 68.390177,14.066171 0.157767,-0.167675 -0.19059,1.180849 -0.497142,-0.447753 z"
         id="path13065" /><path
         style="fill:#000000;stroke-width:0.0737383"
         d="m 50.608381,16.229849 c -0.105745,-0.345104 -0.337673,-1.090277 -0.337673,-1.090277 0.0011,0.0034 -0.04567,-0.159469 -0.1011,-0.345879 0.205298,-0.03669 0.402544,-0.02183 0.564801,0.0562 0.09073,0.0432 0.250197,0.143987 0.285033,0.335041 0.0802,0.429484 -0.06456,0.736038 -0.411061,1.044913 z"
         id="path11132" /><path
         style="fill:#000000;stroke-width:0.0737383"
         d="m 64.573434,15.28712 c -0.170772,-0.31352 -0.136246,-0.711575 0.11906,-0.990569 0.245552,-0.267538 0.621777,-0.343712 0.942574,-0.220007 z"
         id="path15941" /></g></g></svg>
