<?xml version="1.0" encoding="UTF-8" standalone="no"?>
<!-- Created with Inkscape (http://www.inkscape.org/) -->

<svg
   width="147.62909mm"
   height="53.201759mm"
   viewBox="0 0 147.62909 53.20176"
   version="1.1"
   id="svg5"
   xml:space="preserve"
   sodipodi:docname="pokemon.svg"
   inkscape:version="1.1.2 (0a00cf5339, 2022-02-04)"
   xmlns:inkscape="http://www.inkscape.org/namespaces/inkscape"
   xmlns:sodipodi="http://sodipodi.sourceforge.net/DTD/sodipodi-0.dtd"
   xmlns="http://www.w3.org/2000/svg"
   xmlns:svg="http://www.w3.org/2000/svg"><sodipodi:namedview
     id="namedview110"
     pagecolor="#ffffff"
     bordercolor="#666666"
     borderopacity="1.0"
     inkscape:pageshadow="2"
     inkscape:pageopacity="0.0"
     inkscape:pagecheckerboard="0"
     inkscape:document-units="mm"
     showgrid="false"
     fit-margin-top="0"
     fit-margin-left="0"
     fit-margin-right="0"
     fit-margin-bottom="0"
     inkscape:zoom="1.419879"
     inkscape:cx="249.31702"
     inkscape:cy="91.557097"
     inkscape:window-width="1920"
     inkscape:window-height="1136"
     inkscape:window-x="0"
     inkscape:window-y="0"
     inkscape:window-maximized="1"
     inkscape:current-layer="g1860" /><defs
     id="defs2"><linearGradient
       gradientTransform="matrix(1,0,0,-1,-564,-925)"
       y2="-974.57031"
       x2="838.9209"
       y1="-974.57031"
       x1="573.17767"
       gradientUnits="userSpaceOnUse"
       id="SVGID_9_"><stop
         id="stop190"
         style="stop-color:#3C5AA6"
         offset="0" /><stop
         id="stop192"
         style="stop-color:#2B73B9"
         offset="0.9331" /><stop
         id="stop194"
         style="stop-color:#2A75BB"
         offset="1" /></linearGradient><linearGradient
       gradientTransform="matrix(0.55553333,0,0,-0.55553333,-275.44442,-510.31154)"
       y2="-982.76947"
       x2="655.63483"
       y1="-982.76947"
       x1="639.70612"
       gradientUnits="userSpaceOnUse"
       id="SVGID_8_"><stop
         id="stop177"
         style="stop-color:#3C5AA6"
         offset="0" /><stop
         id="stop179"
         style="stop-color:#2B73B9"
         offset="0.9331" /><stop
         id="stop181"
         style="stop-color:#2A75BB"
         offset="1" /></linearGradient><linearGradient
       gradientTransform="translate(-408,-677.5)"
       y2="750.61151"
       x2="448.0217"
       y1="726.20209"
       x1="437.49219"
       gradientUnits="userSpaceOnUse"
       id="SVGID_7_"><stop
         id="stop74"
         style="stop-color:#105FA1"
         offset="0" /><stop
         id="stop76"
         style="stop-color:#1D2C5E"
         offset="1" /></linearGradient><linearGradient
       gradientTransform="matrix(0.55553333,0,0,0.55553333,-187.8334,-381.40456)"
       y2="750.20251"
       x2="480.91931"
       y1="732.30957"
       x1="471.82129"
       gradientUnits="userSpaceOnUse"
       id="SVGID_6_"><stop
         id="stop65"
         style="stop-color:#105FA1"
         offset="0" /><stop
         id="stop67"
         style="stop-color:#1D2C5E"
         offset="1" /></linearGradient><linearGradient
       gradientTransform="translate(-408,-677.5)"
       y2="719.48871"
       x2="576.56763"
       y1="698.26068"
       x1="589.91107"
       gradientUnits="userSpaceOnUse"
       id="SVGID_5_"><stop
         id="stop52"
         style="stop-color:#125D9E"
         offset="0" /><stop
         id="stop54"
         style="stop-color:#1D2C5E"
         offset="1" /></linearGradient><linearGradient
       gradientTransform="translate(-408,-677.5)"
       y2="703.336"
       x2="631.74219"
       y1="714.83398"
       x1="632.34772"
       gradientUnits="userSpaceOnUse"
       id="SVGID_4_"><stop
         id="stop39"
         style="stop-color:#125D9E"
         offset="0" /><stop
         id="stop41"
         style="stop-color:#1D2C5E"
         offset="1" /></linearGradient><linearGradient
       gradientTransform="translate(-408,-677.5)"
       y2="704.54773"
       x2="491.9368"
       y1="717.28607"
       x1="493.45309"
       gradientUnits="userSpaceOnUse"
       id="SVGID_3_"><stop
         id="stop32"
         style="stop-color:#0070B6"
         offset="0" /><stop
         id="stop34"
         style="stop-color:#1D2C5E"
         offset="1" /></linearGradient><linearGradient
       gradientTransform="translate(-408,-677.5)"
       y2="680.94922"
       x2="561.64203"
       y1="694.57318"
       x1="548.92682"
       gradientUnits="userSpaceOnUse"
       id="SVGID_2_"><stop
         id="stop21"
         style="stop-color:#0070B6"
         offset="0" /><stop
         id="stop23"
         style="stop-color:#1D2C5E"
         offset="1" /></linearGradient><linearGradient
       gradientTransform="translate(-408,-677.5)"
       y2="714.04132"
       x2="416.7337"
       y1="732.71002"
       x1="426.75101"
       gradientUnits="userSpaceOnUse"
       id="SVGID_1_"><stop
         id="stop12"
         style="stop-color:#0070B6"
         offset="0" /><stop
         id="stop14"
         style="stop-color:#1D2C5E"
         offset="1" /></linearGradient></defs><g
     id="layer1"
     transform="translate(-42.974495,-4.4939857)"><g
       id="g1860"><g
         transform="matrix(0.55553331,0,0,0.55553331,37.876366,3.556801)"
         id="g160"
         style="stroke-width:0.476269"><g
           id="g162"
           style="stroke-width:0.476269"><path
             style="fill:#3c5aa6;stroke-width:0.476269"
             id="path164"
             d="M 58.588,46.145 C 57.689,41.321 51.381,38.662 45.127,42.073 l 1.612,5.521 2.536,8.159 1.157,3.716 c 4.692,-3.017 9.408,-6.642 8.156,-13.324 z m -6.212,7.418 c -0.683,-2.229 -2.181,-7.042 -2.181,-7.042 0.007,0.022 -0.295,-1.03 -0.653,-2.234 1.326,-0.237 2.6,-0.141 3.648,0.363 0.586,0.279 1.616,0.93 1.841,2.164 0.518,2.774 -0.417,4.754 -2.655,6.749 z" /></g></g><g
         transform="matrix(0.55553331,0,0,0.55553331,37.876366,3.556801)"
         id="g166"
         style="stroke-width:0.476269"><g
           id="g168"
           style="stroke-width:0.476269"><path
             style="fill:#3567b0;stroke-width:0.476269"
             id="path170"
             d="m 153.223,38.491 c -3.496,-3.207 -8.93,-2.958 -12.119,0.535 -3.208,3.487 -2.956,8.924 0.545,12.118 0.285,0.275 0.593,0.5 0.903,0.721 l 11.277,-12.771 c -0.199,-0.208 -0.399,-0.415 -0.606,-0.603 z m -10.648,8.983 c -1.103,-2.025 -0.88,-4.596 0.769,-6.398 1.586,-1.728 4.016,-2.22 6.088,-1.421 z" /></g></g><path
         style="fill:#3466af;stroke-width:0.264584"
         id="path174"
         d="m 163.53746,31.322913 c 0.0526,0.210546 0.08,0.418871 0.0734,0.64053 -0.0577,1.325494 -1.30385,2.348801 -2.78936,2.279345 -1.48437,-0.05101 -2.65043,-1.177717 -2.59209,-2.499892 0.0499,-1.239394 1.15438,-2.220468 2.51821,-2.283243 -0.25887,-0.05833 -0.5294,-0.08888 -0.81162,-0.09887 -2.48491,-0.107233 -4.51594,1.652711 -4.60151,3.84375 -0.0955,2.343235 1.78273,4.253688 4.22819,4.359805 2.48824,0.09953 4.51815,-1.666601 4.61703,-3.998727 0.0289,-0.808298 -0.20998,-1.583267 -0.6422,-2.242685" /><path
         style="fill:url(#SVGID_8_);stroke-width:0.264584"
         id="path183"
         d="m 88.154363,33.998913 c 0,1.331053 -1.21051,2.397678 -2.69322,2.397678 -1.48662,0 -2.69268,-1.06717 -2.69268,-2.397678 0,-1.240504 1.06106,-2.263241 2.42101,-2.382122 -0.26053,-0.04722 -0.53164,-0.07444 -0.81162,-0.07444 -2.48436,0 -4.44428,1.842722 -4.44428,4.03707 0,2.341556 1.96049,4.178165 4.40428,4.178165 2.48655,0 4.44482,-1.837722 4.44482,-4.178165 0,-0.810549 -0.26777,-1.574404 -0.72831,-2.203249 0.0622,0.189387 0.1,0.399437 0.1,0.622736" /><g
         transform="matrix(0.55553331,0,0,0.55553331,37.876366,3.556801)"
         id="g185"
         style="stroke-width:0.476269"><g
           id="g187"
           style="stroke-width:0.476269"><linearGradient
             gradientTransform="matrix(1,0,0,-1,-564,-925)"
             y2="-974.57031"
             x2="838.9209"
             y1="-974.57031"
             x1="573.17767"
             gradientUnits="userSpaceOnUse"
             id="linearGradient1009"><stop
               id="stop1003"
               style="stop-color:#3C5AA6"
               offset="0" /><stop
               id="stop1005"
               style="stop-color:#2B73B9"
               offset="0.9331" /><stop
               id="stop1007"
               style="stop-color:#2A75BB"
               offset="1" /></linearGradient><path
             style="fill:url(#SVGID_9_);stroke-width:0.476269"
             id="path196"
             d="m 254.02,30.598 -1.986,8.185 -1.834,-9.063 -24.559,-5.406 0.172,13.656 3.701,0.83 -0.267,2.463 c -0.048,-0.019 -0.078,-0.048 -0.104,-0.069 -4.588,-2.421 -10.276,-2.669 -15.629,-0.647 -1.796,0.687 -3.463,1.59 -4.975,2.688 l -3.705,-23.388 h -16.333 l -0.45,2.689 H 170.86 l -1.963,12.023 -1.426,-1.761 c -4.166,-5.118 -10.205,-7.937 -16.895,-8.077 l 14.596,-7.845 -10.178,-15.189 -18.389,21.189 3.174,3.87 c -2.875,1.175 -5.387,2.795 -7.468,4.752 l -15.767,-13.989 -5.513,10.566 0.212,-10.154 -24.651,7.875 0.632,13.244 4.194,-1.088 0.62,6.712 c -4.792,-2.152 -10.552,-2.099 -15.894,0.158 -1.583,0.69 -3.059,1.538 -4.419,2.524 0.924,-4.089 0.705,-8.12 -0.853,-11.715 -1.84,-4.248 -5.078,-7.759 -9.048,-9.974 -2.783,-1.854 -6.1,-3.009 -9.571,-3.402 -8.53,-1.491 -18.773,0.04 -28.854,4.335 -3.706,1.581 -7.163,3.375 -10.281,5.361 l -3.941,2.499 2.38,4.019 7.386,12.483 c 0,0 2.26,3.825 2.275,3.823 l 3.994,-1.963 0.557,-0.256 18.353,40.961 1.77,3.937 4.098,-1.32 9.93,-3.181 4.352,-1.383 -1.148,-4.43 -5.274,-20.245 c 1.517,-1.123 2.933,-2.314 4.24,-3.561 -0.295,2.419 -0.14,4.868 0.526,7.212 1.379,4.908 4.593,8.785 9.053,10.933 4.817,2.315 10.694,2.321 16.131,0.015 2.727,-1.157 5.152,-2.845 7.207,-4.854 l 0.749,8.063 17.39,-2.561 -0.027,-15.593 36.337,17.959 V 67.119 c 1.458,-0.122 2.946,-0.352 4.442,-0.719 4.002,-0.967 7.427,-2.293 10.47,-4.116 l -1.526,9.339 19.592,3.083 1.075,-7.05 5.117,9.453 3.128,-6.027 1.143,9.896 22.213,3.916 -1.178,-7.473 c 3.041,0.344 6.246,-0.064 9.342,-1.232 0.733,-0.271 1.457,-0.601 2.15,-0.955 l -0.885,7.951 14.784,2.086 0.11,6.063 15.416,4.839 20.071,-60.495 z m -86.793,8.99 1.019,-1.083 -1.231,7.627 -3.211,-2.892 z m -13.018,-31.156 5.382,7.311 -15.387,7.628 -1.063,-1.615 z M 52.32,64.809 58.459,88.364 48.523,91.538 28.134,46.004 c -1.109,0.583 -3.157,1.561 -5.038,2.483 L 15.713,36.015 c 2.936,-1.875 6.156,-3.537 9.581,-4.984 9.612,-4.088 18.783,-5.308 26.118,-4.012 2.595,0.292 5.342,1.057 7.748,2.654 3.301,1.859 5.826,4.505 7.282,7.875 3.551,8.206 -2.381,20.015 -14.122,27.261 z m 45.681,-4.192 c -0.114,3.507 -1.402,7.021 -3.558,9.994 -2.051,2.875 -4.916,5.248 -8.287,6.699 -8.62,3.652 -17.24,0 -19.543,-8.184 -2.231,-7.913 2.96,-17.333 11.312,-20.931 5.334,-2.252 10.686,-1.718 14.52,0.887 2.368,1.606 4.174,4.021 5.017,7.047 0.106,0.321 0.176,0.658 0.247,0.988 0.241,1.153 0.338,2.335 0.292,3.5 z m 46.901,16.653 -36.055,-18.033 0.064,18.894 -9.327,1.272 -0.65,-7.788 c 2.88,-4.938 3.933,-10.757 2.43,-16.093 -0.825,-2.933 -2.349,-5.479 -4.42,-7.519 l -1.338,-15.879 -4.188,1.086 -0.185,-4.015 14.978,-4.46 0.918,15.448 11.034,-15.503 10.787,10.273 -15.085,15.892 14.172,5.606 c 1.583,3 3.998,5.549 7.028,7.427 2.929,1.808 6.285,2.877 9.835,3.228 z m -18.721,-26.126 -5.015,-1.935 4.675,-4.544 c -0.2,2.086 -0.097,4.267 0.34,6.479 z m 39.237,4.724 c -3.46,2.862 -7.404,4.728 -12.615,5.987 -1.139,0.261 -2.255,0.451 -3.347,0.547 -8.271,0.813 -15.21,-2.985 -17.843,-9.145 -0.328,-0.746 -0.581,-1.501 -0.772,-2.307 -1.218,-5.188 -0.178,-9.825 2.385,-13.458 0.738,-1.06 1.614,-2.026 2.598,-2.896 2.414,-2.154 5.496,-3.72 9,-4.562 7.879,-1.9 14.818,0.505 19.072,5.725 L 148.882,51.74 c 1.018,0.192 2.637,-0.075 3.832,-0.361 3.576,-0.872 5.577,-2.77 7.34,-4.838 l 6,5.398 1.818,1.642 c -0.788,0.815 -1.616,1.584 -2.454,2.287 z m 31.853,21.327 -3.266,-21.635 -4.619,11.935 -6.916,-14.917 h -0.078 l -2.733,17.275 -11.527,-2.006 1.621,-9.64 c 0.435,-0.409 0.863,-0.819 1.284,-1.252 l 3.736,-3.847 -3.631,-3.252 L 175,26.899 h 11.63 l 2.911,15.892 3.262,-18.417 h 8.319 l 3.452,22.438 c -4.393,5.004 -6.527,11.731 -5.059,17.885 1.135,4.771 4.067,8.613 8.27,10.857 0.423,0.213 0.861,0.424 1.313,0.606 l 0.44,2.909 z m 28.725,-7.049 c -1.271,0.905 -2.67,1.674 -4.174,2.229 -2.969,1.131 -5.922,1.366 -8.553,0.843 -1.834,-0.362 -3.506,-1.077 -4.961,-2.112 -2.314,-1.674 -4.018,-4.146 -4.769,-7.25 -0.876,-3.729 -0.069,-7.711 1.937,-11.199 1,-1.705 2.283,-3.307 3.801,-4.688 1.693,-1.518 3.656,-2.761 5.84,-3.601 5.083,-1.896 10.096,-1.242 13.625,1.295 1.298,0.92 2.375,2.091 3.224,3.452 0.644,1.075 1.144,2.26 1.447,3.554 1.081,4.478 -0.206,9.274 -3.031,13.138 -1.21,1.647 -2.685,3.127 -4.386,4.339 z m 25.955,20.392 -8.524,-2.539 -0.743,-31.426 -4.287,24.243 -9.299,-1.484 0.666,-6.98 c 6.072,-5.131 9.291,-13.225 7.527,-20.56 -0.775,-3.248 -2.445,-6.076 -4.799,-8.226 l 0.785,-8.232 -3.516,-0.936 0.235,-4.395 16.021,3.22 5.387,25.546 5.525,-22.903 12.188,2.693 z" /></g></g></g></g></svg>
